<svg xmlns="http://www.w3.org/2000/svg" id="export" class="canvas" preserveAspectRatio="xMidYMid meet" style="" width="561" height="607"><rect id="background" fill="#fff" pointer-events="all" width="561" height="607"/><g id="origin" transform="translate(25.49499969482422, 25.49499969482422) scale(1)"><g id="clusters" class="clusters"/><g id="edge-paths" class="edge-paths" style="pointer-events: none;"><defs><marker id="arrowhead" viewBox="0 0 10 10" refX="9" refY="5" markerUnits="strokeWidth" markerWidth="8" markerHeight="6" orient="auto" style="fill: rgb(0, 0, 0);"><path d="M 0 0 L 10 5 L 0 10 L 4 5 z" style="stroke-width: 1px;"/></marker><marker id="arrowhead-select" viewBox="0 0 10 10" refX="9" refY="5" markerUnits="strokeWidth" markerWidth="8" markerHeight="6" orient="auto" style="fill: rgba(220, 0, 0, 0.9);"><path d="M 0 0 L 10 5 L 0 10 L 4 5 z" style="stroke-width: 1px;"/></marker><marker id="arrowhead-hover" viewBox="0 0 10 10" refX="9" refY="5" markerUnits="strokeWidth" markerWidth="8" markerHeight="6" orient="auto" style="fill: rgba(220, 0, 0, 0.9);"><path d="M 0 0 L 10 5 L 0 10 L 4 5 z" style="stroke-width: 1px;"/></marker></defs><path id="edge-cxcywh_in" class="edge-path" d="M248.7800006866455,20.375L248.7800006866455,22.041666666666668C248.7800006866455,23.708333333333332,248.7800006866455,27.041666666666668,248.7800006866455,32.145833333333336C248.7800006866455,37.25,248.7800006866455,44.125,248.7800006866455,51C248.7800006866455,57.875,248.7800006866455,64.75,248.7800006866455,69.85416666666667C248.7800006866455,74.95833333333333,248.7800006866455,78.29166666666667,248.7800006866455,79.95833333333333L248.7800006866455,81.625" style="stroke: rgb(0, 0, 0); stroke-width: 1px; fill: none; marker-end: url(&quot;#arrowhead&quot;);"/><path id="edge-/Split_output_0" class="edge-path" d="M211.2800006866455,113.21578959414833L193.7800006866455,118.29232469357942C176.2800006866455,123.36885979301051,141.2800006866455,133.52192999187267,123.78000068664551,145.48804844053168C106.28000068664551,157.45416688919067,106.28000068664551,171.23333358764648,106.28000068664551,185.0125002861023C106.28000068664551,198.7916669845581,106.28000068664551,212.57083368301392,106.28000068664551,222.89791703224182C106.28000068664551,233.22500038146973,106.28000068664551,240.10000038146973,106.28000068664551,243.53750038146973L106.28000068664551,246.97500038146973" style="stroke: rgb(0, 0, 0); stroke-width: 1px; fill: none; marker-end: url(&quot;#arrowhead&quot;);"/><path id="edge-/Split_output_1" class="edge-path" d="M272.5802728913067,123.05000019073486L276.5302275238632,126.48750019073486C280.48018215641963,129.92500019073486,288.3800914215326,136.80000019073486,292.33004605408905,147.12708353996277C296.2800006866455,157.45416688919067,296.2800006866455,171.23333358764648,296.2800006866455,185.0125002861023C296.2800006866455,198.7916669845581,296.2800006866455,212.57083368301392,296.2800006866455,222.89791703224182C296.2800006866455,233.22500038146973,296.2800006866455,240.10000038146973,296.2800006866455,243.53750038146973L296.2800006866455,246.97500038146973" style="stroke: rgb(0, 0, 0); stroke-width: 1px; fill: none; marker-end: url(&quot;#arrowhead&quot;);"/><path id="edge-/Split_output_2" class="edge-path" d="M224.97972848198432,123.05000019073486L221.02977384942787,126.48750019073486C217.0798192168714,129.92500019073486,209.17990995175845,136.80000019073486,205.22995531920196,143.67500019073486C201.2800006866455,150.55000019073486,201.2800006866455,157.42500019073486,201.2800006866455,160.86250019073486L201.2800006866455,164.30000019073486" style="stroke: rgb(0, 0, 0); stroke-width: 1px; fill: none; marker-end: url(&quot;#arrowhead&quot;);"/><path id="edge-/Split_output_3" class="edge-path" d="M286.2800006866455,113.21578959414833L303.7800006866455,118.29232469357942C321.2800006866455,123.36885979301051,356.2800006866455,133.52192999187267,373.7800006866455,142.03596509130378C391.2800006866455,150.55000019073486,391.2800006866455,157.42500019073486,391.2800006866455,160.86250019073486L391.2800006866455,164.30000019073486" style="stroke: rgb(0, 0, 0); stroke-width: 1px; fill: none; marker-end: url(&quot;#arrowhead&quot;);"/><path id="edge-/Squeeze_output_0" class="edge-path" d="M68.78000068664551,284.8999835985175L60.02000045776367,288.9208197607987C51.260000228881836,292.94165592307985,33.739999771118164,300.98332824764225,27.354036129995972,308.4416644099234C20.968072488873773,315.9000005722046,25.716145664393053,322.7750005722046,28.090182252152697,326.2125005722046L30.464218839912338,329.6500005722046" style="stroke: rgb(0, 0, 0); stroke-width: 1px; fill: none; marker-end: url(&quot;#arrowhead&quot;);"/><path id="edge-/Squeeze_output_0" class="edge-path" d="M143.7800006866455,277.1523694906195L164.82666746775308,282.4644746708837C185.8733342488607,287.77657985114786,227.96666781107584,298.4007902116762,254.31252323315707,307.15039539194044C280.65837865523827,315.9000005722046,291.2567559371856,322.7750005722046,296.5559445781592,326.2125005722046L301.8551332191328,329.6500005722046" style="stroke: rgb(0, 0, 0); stroke-width: 1px; fill: none; marker-end: url(&quot;#arrowhead&quot;);"/><path id="edge-/Squeeze_1_output_0" class="edge-path" d="M258.7800006866455,278.9564466683226L242.10333379109701,283.96787231896957C225.4266668955485,288.9792979696166,192.0733331044515,299.0021492709106,177.77070279666262,307.45107492155756C163.4680724888738,315.9000005722046,168.21614566439305,322.7750005722046,170.5901822521527,326.2125005722046L172.96421883991235,329.6500005722046" style="stroke: rgb(0, 0, 0); stroke-width: 1px; fill: none; marker-end: url(&quot;#arrowhead&quot;);"/><path id="edge-/Squeeze_1_output_0" class="edge-path" d="M333.7800006866455,281.01873752897376L346.9100008010864,285.6864480361789C360.04000091552734,290.354158543384,386.3000011444092,299.68957955779433,404.7291898998237,307.79479006499946C423.15837865523827,315.9000005722046,433.7567559371855,322.7750005722046,439.05594457815914,326.2125005722046L444.3551332191328,329.6500005722046" style="stroke: rgb(0, 0, 0); stroke-width: 1px; fill: none; marker-end: url(&quot;#arrowhead&quot;);"/><path id="edge-/Squeeze_2_output_0" class="edge-path" d="M201.2800006866455,205.72500038146973L201.2800006866455,209.16250038146973C201.2800006866455,212.60000038146973,201.2800006866455,219.47500038146973,201.2800006866455,226.5937503973643C201.2800006866455,233.71250041325888,201.2800006866455,241.075000445048,201.2800006866455,244.7562504609426L201.2800006866455,248.43750047683716" style="stroke: rgb(0, 0, 0); stroke-width: 1px; fill: none; marker-end: url(&quot;#arrowhead&quot;);"/><path id="edge-/Squeeze_3_output_0" class="edge-path" d="M391.2800006866455,205.72500038146973L391.2800006866455,209.16250038146973C391.2800006866455,212.60000038146973,391.2800006866455,219.47500038146973,391.2800006866455,226.5937503973643C391.2800006866455,233.71250041325888,391.2800006866455,241.075000445048,391.2800006866455,244.7562504609426L391.2800006866455,248.43750047683716" style="stroke: rgb(0, 0, 0); stroke-width: 1px; fill: none; marker-end: url(&quot;#arrowhead&quot;);"/><path id="edge-/Mul_output_0" class="edge-path" d="M163.7800006866455,281.01873752897376L150.6500005722046,285.6864480361789C137.52000045776367,290.354158543384,111.26000022888184,299.68957955779433,92.83081147346729,307.79479006499946C74.40162271805274,315.9000005722046,63.80324543610548,322.7750005722046,58.504056795131845,326.2125005722046L53.20486815415821,329.6500005722046" style="stroke: rgb(0, 0, 0); stroke-width: 1px; fill: none; marker-end: url(&quot;#arrowhead&quot;);"/><path id="edge-/Mul_output_0" class="edge-path" d="M238.7800006866455,278.9564466683226L255.456667582194,283.96787231896957C272.1333344777425,288.9792979696166,305.48666826883954,299.0021492709106,319.78929857662837,307.45107492155756C334.09192888441726,315.9000005722046,329.34385570889793,322.7750005722046,326.9698191211383,326.2125005722046L324.59578253337867,329.6500005722046" style="stroke: rgb(0, 0, 0); stroke-width: 1px; fill: none; marker-end: url(&quot;#arrowhead&quot;);"/><path id="edge-/Sub_output_0" class="edge-path" d="M37.5,350.0250005722046L37.5,353.4625005722046C37.5,356.9000005722046,37.5,363.7750005722046,37.5,370.6500005722046C37.5,377.5250005722046,37.5,384.4000005722046,37.5,387.8375005722046L37.5,391.2750005722046" style="stroke: rgb(0, 0, 0); stroke-width: 1px; fill: none; marker-end: url(&quot;#arrowhead&quot;);"/><path id="edge-/Mul_1_output_0" class="edge-path" d="M353.7800006866455,277.1523694906195L332.7333339055379,282.4644746708837C311.68666712443036,287.77657985114786,269.59333356221515,298.4007902116762,243.24747814013395,307.15039539194044C216.90162271805275,315.9000005722046,206.3032454361055,322.7750005722046,201.00405679513185,326.2125005722046L195.70486815415822,329.6500005722046" style="stroke: rgb(0, 0, 0); stroke-width: 1px; fill: none; marker-end: url(&quot;#arrowhead&quot;);"/><path id="edge-/Mul_1_output_0" class="edge-path" d="M428.7800006866455,284.8999835985175L437.54000091552734,288.9208197607987C446.3000011444092,292.94165592307985,463.82000160217285,300.98332824764225,470.205965243295,308.4416644099234C476.59192888441726,315.9000005722046,471.843855708898,322.7750005722046,469.4698191211383,326.2125005722046L467.09578253337867,329.6500005722046" style="stroke: rgb(0, 0, 0); stroke-width: 1px; fill: none; marker-end: url(&quot;#arrowhead&quot;);"/><path id="edge-/Sub_1_output_0" class="edge-path" d="M180,350.0250005722046L180,353.4625005722046C180,356.9000005722046,180,363.7750005722046,180,370.6500005722046C180,377.5250005722046,180,384.4000005722046,180,387.8375005722046L180,391.2750005722046" style="stroke: rgb(0, 0, 0); stroke-width: 1px; fill: none; marker-end: url(&quot;#arrowhead&quot;);"/><path id="edge-/Add_output_0" class="edge-path" d="M317.560001373291,350.0250005722046L317.560001373291,353.4625005722046C317.560001373291,356.9000005722046,317.560001373291,363.7750005722046,317.560001373291,370.6500005722046C317.560001373291,377.5250005722046,317.560001373291,384.4000005722046,317.560001373291,387.8375005722046L317.560001373291,391.2750005722046" style="stroke: rgb(0, 0, 0); stroke-width: 1px; fill: none; marker-end: url(&quot;#arrowhead&quot;);"/><path id="edge-/Add_1_output_0" class="edge-path" d="M460.060001373291,350.0250005722046L460.060001373291,353.4625005722046C460.060001373291,356.9000005722046,460.060001373291,363.7750005722046,460.060001373291,370.6500005722046C460.060001373291,377.5250005722046,460.060001373291,384.4000005722046,460.060001373291,387.8375005722046L460.060001373291,391.2750005722046" style="stroke: rgb(0, 0, 0); stroke-width: 1px; fill: none; marker-end: url(&quot;#arrowhead&quot;);"/><path id="edge-/Unsqueeze_output_0" class="edge-path" d="M37.5,432.70000076293945L37.5,436.13750076293945C37.5,439.57500076293945,37.5,446.45000076293945,68.65183353424072,454.43059934138654C99.80366706848145,462.41119791983357,162.1073341369629,471.49739507672774,193.2591676712036,476.04049365517477L224.41100120544434,480.5835922336218" style="stroke: rgb(0, 0, 0); stroke-width: 1px; fill: none; marker-end: url(&quot;#arrowhead&quot;);"/><path id="edge-/Unsqueeze_1_output_0" class="edge-path" d="M180,432.70000076293945L180,436.13750076293945C180,439.57500076293945,180,446.45000076293945,187.67322522873326,453.32500076293945C195.34645045746655,460.20000076293945,210.69290091493312,467.07500076293945,218.36612614366638,470.51250076293945L226.03935137239964,473.95000076293945" style="stroke: rgb(0, 0, 0); stroke-width: 1px; fill: none; marker-end: url(&quot;#arrowhead&quot;);"/><path id="edge-/Unsqueeze_2_output_0" class="edge-path" d="M317.560001373291,432.70000076293945L317.560001373291,436.13750076293945C317.560001373291,439.57500076293945,317.560001373291,446.45000076293945,309.88677614455776,453.32500076293945C302.2135509158245,460.20000076293945,286.8671004583579,467.07500076293945,279.19387522962467,470.51250076293945L271.5206500008914,473.95000076293945" style="stroke: rgb(0, 0, 0); stroke-width: 1px; fill: none; marker-end: url(&quot;#arrowhead&quot;);"/><path id="edge-/Unsqueeze_3_output_0" class="edge-path" d="M460.060001373291,432.70000076293945L460.060001373291,436.13750076293945C460.060001373291,439.57500076293945,460.060001373291,446.45000076293945,428.9081678390503,454.43059934138654C397.75633430480957,462.41119791983357,335.4526672363281,471.49739507672774,304.3008337020874,476.04049365517477L273.1490001678467,480.5835922336218" style="stroke: rgb(0, 0, 0); stroke-width: 1px; fill: none; marker-end: url(&quot;#arrowhead&quot;);"/><path id="edge-xyxy_out" class="edge-path" d="M248.7800006866455,494.32500076293945L248.7800006866455,497.76250076293945C248.7800006866455,501.20000076293945,248.7800006866455,508.07500076293945,248.7800006866455,514.9500007629395C248.7800006866455,521.8250007629395,248.7800006866455,528.7000007629395,248.7800006866455,532.1375007629395L248.7800006866455,535.5750007629395" style="stroke: rgb(0, 0, 0); stroke-width: 1px; fill: none; marker-end: url(&quot;#arrowhead&quot;);"/></g><g id="edge-labels" class="edge-labels"><text style="opacity: 1; font-family: -apple-system, BlinkMacSystemFont, &quot;Segoe WPC&quot;, &quot;Segoe UI&quot;, &quot;Ubuntu&quot;, &quot;Droid Sans&quot;, sans-serif, &quot;PingFang SC&quot;; font-size: 10px;" class="edge-label" id="edge-label-edge-cxcywh_in" transform="translate(253.7800006866455,45.375)"><tspan xml:space="preserve" dy="1em" x="1">8400×4</tspan></text><text style="opacity: 1; font-family: -apple-system, BlinkMacSystemFont, &quot;Segoe WPC&quot;, &quot;Segoe UI&quot;, &quot;Ubuntu&quot;, &quot;Droid Sans&quot;, sans-serif, &quot;PingFang SC&quot;; font-size: 10px;" class="edge-label" id="edge-label-edge-/Split_output_0" transform="translate(111.28000068664551,179.3875002861023)"><tspan xml:space="preserve" dy="1em" x="1">8400×1</tspan></text><text style="opacity: 1; font-family: -apple-system, BlinkMacSystemFont, &quot;Segoe WPC&quot;, &quot;Segoe UI&quot;, &quot;Ubuntu&quot;, &quot;Droid Sans&quot;, sans-serif, &quot;PingFang SC&quot;; font-size: 10px;" class="edge-label" id="edge-label-edge-/Split_output_1" transform="translate(301.2800006866455,179.3875002861023)"><tspan xml:space="preserve" dy="1em" x="1">8400×1</tspan></text><text style="opacity: 1; font-family: -apple-system, BlinkMacSystemFont, &quot;Segoe WPC&quot;, &quot;Segoe UI&quot;, &quot;Ubuntu&quot;, &quot;Droid Sans&quot;, sans-serif, &quot;PingFang SC&quot;; font-size: 10px;" class="edge-label" id="edge-label-edge-/Split_output_2" transform="translate(206.2800006866455,138.05000019073486)"><tspan xml:space="preserve" dy="1em" x="1">8400×1</tspan></text><text style="opacity: 1; font-family: -apple-system, BlinkMacSystemFont, &quot;Segoe WPC&quot;, &quot;Segoe UI&quot;, &quot;Ubuntu&quot;, &quot;Droid Sans&quot;, sans-serif, &quot;PingFang SC&quot;; font-size: 10px;" class="edge-label" id="edge-label-edge-/Split_output_3" transform="translate(396.2800006866455,138.05000019073486)"><tspan xml:space="preserve" dy="1em" x="1">8400×1</tspan></text><text style="opacity: 1; font-family: -apple-system, BlinkMacSystemFont, &quot;Segoe WPC&quot;, &quot;Segoe UI&quot;, &quot;Ubuntu&quot;, &quot;Droid Sans&quot;, sans-serif, &quot;PingFang SC&quot;; font-size: 10px;" class="edge-label" id="edge-label-edge-/Squeeze_output_0" transform="translate(21.219999313354492,303.4000005722046)"><tspan xml:space="preserve" dy="1em" x="1">8400</tspan></text><text style="opacity: 1; font-family: -apple-system, BlinkMacSystemFont, &quot;Segoe WPC&quot;, &quot;Segoe UI&quot;, &quot;Ubuntu&quot;, &quot;Droid Sans&quot;, sans-serif, &quot;PingFang SC&quot;; font-size: 10px;" class="edge-label" id="edge-label-edge-/Squeeze_output_0" transform="translate(275.060001373291,303.4000005722046)"><tspan xml:space="preserve" dy="1em" x="1">8400</tspan></text><text style="opacity: 1; font-family: -apple-system, BlinkMacSystemFont, &quot;Segoe WPC&quot;, &quot;Segoe UI&quot;, &quot;Ubuntu&quot;, &quot;Droid Sans&quot;, sans-serif, &quot;PingFang SC&quot;; font-size: 10px;" class="edge-label" id="edge-label-edge-/Squeeze_1_output_0" transform="translate(163.7199993133545,303.4000005722046)"><tspan xml:space="preserve" dy="1em" x="1">8400</tspan></text><text style="opacity: 1; font-family: -apple-system, BlinkMacSystemFont, &quot;Segoe WPC&quot;, &quot;Segoe UI&quot;, &quot;Ubuntu&quot;, &quot;Droid Sans&quot;, sans-serif, &quot;PingFang SC&quot;; font-size: 10px;" class="edge-label" id="edge-label-edge-/Squeeze_1_output_0" transform="translate(417.560001373291,303.4000005722046)"><tspan xml:space="preserve" dy="1em" x="1">8400</tspan></text><text style="opacity: 1; font-family: -apple-system, BlinkMacSystemFont, &quot;Segoe WPC&quot;, &quot;Segoe UI&quot;, &quot;Ubuntu&quot;, &quot;Droid Sans&quot;, sans-serif, &quot;PingFang SC&quot;; font-size: 10px;" class="edge-label" id="edge-label-edge-/Squeeze_2_output_0" transform="translate(206.2800006866455,220.72500038146973)"><tspan xml:space="preserve" dy="1em" x="1">8400</tspan></text><text style="opacity: 1; font-family: -apple-system, BlinkMacSystemFont, &quot;Segoe WPC&quot;, &quot;Segoe UI&quot;, &quot;Ubuntu&quot;, &quot;Droid Sans&quot;, sans-serif, &quot;PingFang SC&quot;; font-size: 10px;" class="edge-label" id="edge-label-edge-/Squeeze_3_output_0" transform="translate(396.2800006866455,220.72500038146973)"><tspan xml:space="preserve" dy="1em" x="1">8400</tspan></text><text style="opacity: 1; font-family: -apple-system, BlinkMacSystemFont, &quot;Segoe WPC&quot;, &quot;Segoe UI&quot;, &quot;Ubuntu&quot;, &quot;Droid Sans&quot;, sans-serif, &quot;PingFang SC&quot;; font-size: 10px;" class="edge-label" id="edge-label-edge-/Mul_output_0" transform="translate(90,303.4000005722046)"><tspan xml:space="preserve" dy="1em" x="1">8400</tspan></text><text style="opacity: 1; font-family: -apple-system, BlinkMacSystemFont, &quot;Segoe WPC&quot;, &quot;Segoe UI&quot;, &quot;Ubuntu&quot;, &quot;Droid Sans&quot;, sans-serif, &quot;PingFang SC&quot;; font-size: 10px;" class="edge-label" id="edge-label-edge-/Mul_output_0" transform="translate(343.8400020599365,303.4000005722046)"><tspan xml:space="preserve" dy="1em" x="1">8400</tspan></text><text style="opacity: 1; font-family: -apple-system, BlinkMacSystemFont, &quot;Segoe WPC&quot;, &quot;Segoe UI&quot;, &quot;Ubuntu&quot;, &quot;Droid Sans&quot;, sans-serif, &quot;PingFang SC&quot;; font-size: 10px;" class="edge-label" id="edge-label-edge-/Sub_output_0" transform="translate(42.5,365.0250005722046)"><tspan xml:space="preserve" dy="1em" x="1">8400</tspan></text><text style="opacity: 1; font-family: -apple-system, BlinkMacSystemFont, &quot;Segoe WPC&quot;, &quot;Segoe UI&quot;, &quot;Ubuntu&quot;, &quot;Droid Sans&quot;, sans-serif, &quot;PingFang SC&quot;; font-size: 10px;" class="edge-label" id="edge-label-edge-/Mul_1_output_0" transform="translate(232.5,303.4000005722046)"><tspan xml:space="preserve" dy="1em" x="1">8400</tspan></text><text style="opacity: 1; font-family: -apple-system, BlinkMacSystemFont, &quot;Segoe WPC&quot;, &quot;Segoe UI&quot;, &quot;Ubuntu&quot;, &quot;Droid Sans&quot;, sans-serif, &quot;PingFang SC&quot;; font-size: 10px;" class="edge-label" id="edge-label-edge-/Mul_1_output_0" transform="translate(486.3400020599365,303.4000005722046)"><tspan xml:space="preserve" dy="1em" x="1">8400</tspan></text><text style="opacity: 1; font-family: -apple-system, BlinkMacSystemFont, &quot;Segoe WPC&quot;, &quot;Segoe UI&quot;, &quot;Ubuntu&quot;, &quot;Droid Sans&quot;, sans-serif, &quot;PingFang SC&quot;; font-size: 10px;" class="edge-label" id="edge-label-edge-/Sub_1_output_0" transform="translate(185,365.0250005722046)"><tspan xml:space="preserve" dy="1em" x="1">8400</tspan></text><text style="opacity: 1; font-family: -apple-system, BlinkMacSystemFont, &quot;Segoe WPC&quot;, &quot;Segoe UI&quot;, &quot;Ubuntu&quot;, &quot;Droid Sans&quot;, sans-serif, &quot;PingFang SC&quot;; font-size: 10px;" class="edge-label" id="edge-label-edge-/Add_output_0" transform="translate(322.560001373291,365.0250005722046)"><tspan xml:space="preserve" dy="1em" x="1">8400</tspan></text><text style="opacity: 1; font-family: -apple-system, BlinkMacSystemFont, &quot;Segoe WPC&quot;, &quot;Segoe UI&quot;, &quot;Ubuntu&quot;, &quot;Droid Sans&quot;, sans-serif, &quot;PingFang SC&quot;; font-size: 10px;" class="edge-label" id="edge-label-edge-/Add_1_output_0" transform="translate(465.060001373291,365.0250005722046)"><tspan xml:space="preserve" dy="1em" x="1">8400</tspan></text><text style="opacity: 1; font-family: -apple-system, BlinkMacSystemFont, &quot;Segoe WPC&quot;, &quot;Segoe UI&quot;, &quot;Ubuntu&quot;, &quot;Droid Sans&quot;, sans-serif, &quot;PingFang SC&quot;; font-size: 10px;" class="edge-label" id="edge-label-edge-/Unsqueeze_output_0" transform="translate(42.5,447.70000076293945)"><tspan xml:space="preserve" dy="1em" x="1">8400×1</tspan></text><text style="opacity: 1; font-family: -apple-system, BlinkMacSystemFont, &quot;Segoe WPC&quot;, &quot;Segoe UI&quot;, &quot;Ubuntu&quot;, &quot;Droid Sans&quot;, sans-serif, &quot;PingFang SC&quot;; font-size: 10px;" class="edge-label" id="edge-label-edge-/Unsqueeze_1_output_0" transform="translate(185,447.70000076293945)"><tspan xml:space="preserve" dy="1em" x="1">8400×1</tspan></text><text style="opacity: 1; font-family: -apple-system, BlinkMacSystemFont, &quot;Segoe WPC&quot;, &quot;Segoe UI&quot;, &quot;Ubuntu&quot;, &quot;Droid Sans&quot;, sans-serif, &quot;PingFang SC&quot;; font-size: 10px;" class="edge-label" id="edge-label-edge-/Unsqueeze_2_output_0" transform="translate(322.560001373291,447.70000076293945)"><tspan xml:space="preserve" dy="1em" x="1">8400×1</tspan></text><text style="opacity: 1; font-family: -apple-system, BlinkMacSystemFont, &quot;Segoe WPC&quot;, &quot;Segoe UI&quot;, &quot;Ubuntu&quot;, &quot;Droid Sans&quot;, sans-serif, &quot;PingFang SC&quot;; font-size: 10px;" class="edge-label" id="edge-label-edge-/Unsqueeze_3_output_0" transform="translate(465.060001373291,447.70000076293945)"><tspan xml:space="preserve" dy="1em" x="1">8400×1</tspan></text><text style="opacity: 1; font-family: -apple-system, BlinkMacSystemFont, &quot;Segoe WPC&quot;, &quot;Segoe UI&quot;, &quot;Ubuntu&quot;, &quot;Droid Sans&quot;, sans-serif, &quot;PingFang SC&quot;; font-size: 10px;" class="edge-label" id="edge-label-edge-xyxy_out" transform="translate(253.7800006866455,509.32500076293945)"><tspan xml:space="preserve" dy="1em" x="1">8400×4</tspan></text></g><g id="nodes" class="nodes"><g id="input-name-cxcywh_in" class="node graph-input" style="" transform="translate(216.41950035095215,0)"><g class="node-item graph-item-input" transform="translate(0,0)"><path d="M5,0h54.72100067138672a5,5 0 0 1 5,5v10.375a5,5 0 0 1 -5,5h-54.72100067138672a5,5 0 0 1 -5,-5v-10.375a5,5 0 0 1 5,-5z" style="stroke: rgb(0, 0, 0); fill: rgb(238, 238, 238); stroke-width: 0px;"/><text x="6" y="14.28499984741211" style="font-family: -apple-system, BlinkMacSystemFont, &quot;Segoe WPC&quot;, &quot;Segoe UI&quot;, &quot;Ubuntu&quot;, &quot;Droid Sans&quot;, sans-serif, &quot;PingFang SC&quot;; font-size: 11px; text-rendering: geometricprecision; user-select: none;">cxcywh_in</text><title>float32[8400,4]</title></g><path class="node node-border" d="M5,0h54.72100067138672a5,5 0 0 1 5,5v10.375a5,5 0 0 1 -5,5h-54.72100067138672a5,5 0 0 1 -5,-5v-10.375a5,5 0 0 1 5,-5z" style="stroke: rgb(51, 51, 51); fill: none; stroke-width: 1px;"/></g><g id="node-name-/Split" class="node graph-node" style="" transform="translate(211.2800006866455,81.625)"><g class="node-item node-item-type node-item-type-tensor" transform="translate(0,0)"><path d="M5,0h65a5,5 0 0 1 5,5v15.375a0,0 0 0 1 0,0h-75a0,0 0 0 1 0,0v-15.375a5,5 0 0 1 5,-5z" style="stroke: rgb(0, 0, 0); fill: rgb(89, 66, 59); stroke-width: 0px;"/><text x="6" y="14.28499984741211" style="font-family: -apple-system, BlinkMacSystemFont, &quot;Segoe WPC&quot;, &quot;Segoe UI&quot;, &quot;Ubuntu&quot;, &quot;Droid Sans&quot;, sans-serif, &quot;PingFang SC&quot;; font-size: 11px; text-rendering: geometricprecision; user-select: none; fill: rgb(255, 255, 255);">Split</text><title>/Split</title></g><g class="node-argument-list" transform="translate(0,20.375)"><path d="M0,0h75a0,0 0 0 1 0,0v16.050000190734863a5,5 0 0 1 -5,5h-65a5,5 0 0 1 -5,-5v-16.050000190734863a0,0 0 0 1 0,0z" style="stroke: rgb(0, 0, 0); fill: rgb(255, 255, 255); stroke-width: 0px;"/><g class="node-argument"><rect rx="3" ry="3" x="3" y="3" width="69" height="15.050000190734863" style="fill: transparent;"/><text xml:space="preserve" x="6" y="14.440000534057617" style="font-family: -apple-system, BlinkMacSystemFont, &quot;Segoe WPC&quot;, &quot;Segoe UI&quot;, &quot;Ubuntu&quot;, &quot;Droid Sans&quot;, sans-serif, &quot;PingFang SC&quot;; font-size: 9px; font-weight: normal; text-rendering: geometricprecision; user-select: none;"><title>int64[4]</title><tspan style="font-weight: bold;">split</tspan><tspan>〈4〉</tspan></text></g><line class="node" x1="0" x2="75" y1="0" y2="0" style="stroke: rgb(51, 51, 51); fill: none; stroke-width: 1px;"/></g><path class="node node-border" d="M5,0h65a5,5 0 0 1 5,5v31.425000190734863a5,5 0 0 1 -5,5h-65a5,5 0 0 1 -5,-5v-31.425000190734863a5,5 0 0 1 5,-5z" style="stroke: rgb(51, 51, 51); fill: none; stroke-width: 1px;"/></g><g id="node-name-/Squeeze" class="node graph-node" style="" transform="translate(68.78000068664551,246.97500038146973)"><g class="node-item node-item-type node-item-type-transform" transform="translate(0,0)"><path d="M5,0h65a5,5 0 0 1 5,5v15.375a0,0 0 0 1 0,0h-75a0,0 0 0 1 0,0v-15.375a5,5 0 0 1 5,-5z" style="stroke: rgb(0, 0, 0); fill: rgb(51, 85, 68); stroke-width: 0px;"/><text x="6" y="14.28499984741211" style="font-family: -apple-system, BlinkMacSystemFont, &quot;Segoe WPC&quot;, &quot;Segoe UI&quot;, &quot;Ubuntu&quot;, &quot;Droid Sans&quot;, sans-serif, &quot;PingFang SC&quot;; font-size: 11px; text-rendering: geometricprecision; user-select: none; fill: rgb(255, 255, 255);">Squeeze</text><title>/Squeeze</title></g><g class="node-argument-list" transform="translate(0,20.375)"><path d="M0,0h75a0,0 0 0 1 0,0v16.050000190734863a5,5 0 0 1 -5,5h-65a5,5 0 0 1 -5,-5v-16.050000190734863a0,0 0 0 1 0,0z" style="stroke: rgb(0, 0, 0); fill: rgb(255, 255, 255); stroke-width: 0px;"/><g class="node-argument"><rect rx="3" ry="3" x="3" y="3" width="69" height="15.050000190734863" style="fill: transparent;"/><text xml:space="preserve" x="6" y="14.440000534057617" style="font-family: -apple-system, BlinkMacSystemFont, &quot;Segoe WPC&quot;, &quot;Segoe UI&quot;, &quot;Ubuntu&quot;, &quot;Droid Sans&quot;, sans-serif, &quot;PingFang SC&quot;; font-size: 9px; font-weight: normal; text-rendering: geometricprecision; user-select: none;"><title>int64[1]</title><tspan style="font-weight: bold;">axes</tspan><tspan>〈1〉</tspan></text></g><line class="node" x1="0" x2="75" y1="0" y2="0" style="stroke: rgb(51, 51, 51); fill: none; stroke-width: 1px;"/></g><path class="node node-border" d="M5,0h65a5,5 0 0 1 5,5v31.425000190734863a5,5 0 0 1 -5,5h-65a5,5 0 0 1 -5,-5v-31.425000190734863a5,5 0 0 1 5,-5z" style="stroke: rgb(51, 51, 51); fill: none; stroke-width: 1px;"/></g><g id="node-name-/Squeeze_1" class="node graph-node" style="" transform="translate(258.7800006866455,246.97500038146973)"><g class="node-item node-item-type node-item-type-transform" transform="translate(0,0)"><path d="M5,0h65a5,5 0 0 1 5,5v15.375a0,0 0 0 1 0,0h-75a0,0 0 0 1 0,0v-15.375a5,5 0 0 1 5,-5z" style="stroke: rgb(0, 0, 0); fill: rgb(51, 85, 68); stroke-width: 0px;"/><text x="6" y="14.28499984741211" style="font-family: -apple-system, BlinkMacSystemFont, &quot;Segoe WPC&quot;, &quot;Segoe UI&quot;, &quot;Ubuntu&quot;, &quot;Droid Sans&quot;, sans-serif, &quot;PingFang SC&quot;; font-size: 11px; text-rendering: geometricprecision; user-select: none; fill: rgb(255, 255, 255);">Squeeze</text><title>/Squeeze_1</title></g><g class="node-argument-list" transform="translate(0,20.375)"><path d="M0,0h75a0,0 0 0 1 0,0v16.050000190734863a5,5 0 0 1 -5,5h-65a5,5 0 0 1 -5,-5v-16.050000190734863a0,0 0 0 1 0,0z" style="stroke: rgb(0, 0, 0); fill: rgb(255, 255, 255); stroke-width: 0px;"/><g class="node-argument"><rect rx="3" ry="3" x="3" y="3" width="69" height="15.050000190734863" style="fill: transparent;"/><text xml:space="preserve" x="6" y="14.440000534057617" style="font-family: -apple-system, BlinkMacSystemFont, &quot;Segoe WPC&quot;, &quot;Segoe UI&quot;, &quot;Ubuntu&quot;, &quot;Droid Sans&quot;, sans-serif, &quot;PingFang SC&quot;; font-size: 9px; font-weight: normal; text-rendering: geometricprecision; user-select: none;"><title>int64[1]</title><tspan style="font-weight: bold;">axes</tspan><tspan>〈1〉</tspan></text></g><line class="node" x1="0" x2="75" y1="0" y2="0" style="stroke: rgb(51, 51, 51); fill: none; stroke-width: 1px;"/></g><path class="node node-border" d="M5,0h65a5,5 0 0 1 5,5v31.425000190734863a5,5 0 0 1 -5,5h-65a5,5 0 0 1 -5,-5v-31.425000190734863a5,5 0 0 1 5,-5z" style="stroke: rgb(51, 51, 51); fill: none; stroke-width: 1px;"/></g><g id="node-name-/Squeeze_2" class="node graph-node" style="" transform="translate(163.7800006866455,164.30000019073486)"><g class="node-item node-item-type node-item-type-transform" transform="translate(0,0)"><path d="M5,0h65a5,5 0 0 1 5,5v15.375a0,0 0 0 1 0,0h-75a0,0 0 0 1 0,0v-15.375a5,5 0 0 1 5,-5z" style="stroke: rgb(0, 0, 0); fill: rgb(51, 85, 68); stroke-width: 0px;"/><text x="6" y="14.28499984741211" style="font-family: -apple-system, BlinkMacSystemFont, &quot;Segoe WPC&quot;, &quot;Segoe UI&quot;, &quot;Ubuntu&quot;, &quot;Droid Sans&quot;, sans-serif, &quot;PingFang SC&quot;; font-size: 11px; text-rendering: geometricprecision; user-select: none; fill: rgb(255, 255, 255);">Squeeze</text><title>/Squeeze_2</title></g><g class="node-argument-list" transform="translate(0,20.375)"><path d="M0,0h75a0,0 0 0 1 0,0v16.050000190734863a5,5 0 0 1 -5,5h-65a5,5 0 0 1 -5,-5v-16.050000190734863a0,0 0 0 1 0,0z" style="stroke: rgb(0, 0, 0); fill: rgb(255, 255, 255); stroke-width: 0px;"/><g class="node-argument"><rect rx="3" ry="3" x="3" y="3" width="69" height="15.050000190734863" style="fill: transparent;"/><text xml:space="preserve" x="6" y="14.440000534057617" style="font-family: -apple-system, BlinkMacSystemFont, &quot;Segoe WPC&quot;, &quot;Segoe UI&quot;, &quot;Ubuntu&quot;, &quot;Droid Sans&quot;, sans-serif, &quot;PingFang SC&quot;; font-size: 9px; font-weight: normal; text-rendering: geometricprecision; user-select: none;"><title>int64[1]</title><tspan style="font-weight: bold;">axes</tspan><tspan>〈1〉</tspan></text></g><line class="node" x1="0" x2="75" y1="0" y2="0" style="stroke: rgb(51, 51, 51); fill: none; stroke-width: 1px;"/></g><path class="node node-border" d="M5,0h65a5,5 0 0 1 5,5v31.425000190734863a5,5 0 0 1 -5,5h-65a5,5 0 0 1 -5,-5v-31.425000190734863a5,5 0 0 1 5,-5z" style="stroke: rgb(51, 51, 51); fill: none; stroke-width: 1px;"/></g><g id="node-name-/Squeeze_3" class="node graph-node" style="" transform="translate(353.7800006866455,164.30000019073486)"><g class="node-item node-item-type node-item-type-transform" transform="translate(0,0)"><path d="M5,0h65a5,5 0 0 1 5,5v15.375a0,0 0 0 1 0,0h-75a0,0 0 0 1 0,0v-15.375a5,5 0 0 1 5,-5z" style="stroke: rgb(0, 0, 0); fill: rgb(51, 85, 68); stroke-width: 0px;"/><text x="6" y="14.28499984741211" style="font-family: -apple-system, BlinkMacSystemFont, &quot;Segoe WPC&quot;, &quot;Segoe UI&quot;, &quot;Ubuntu&quot;, &quot;Droid Sans&quot;, sans-serif, &quot;PingFang SC&quot;; font-size: 11px; text-rendering: geometricprecision; user-select: none; fill: rgb(255, 255, 255);">Squeeze</text><title>/Squeeze_3</title></g><g class="node-argument-list" transform="translate(0,20.375)"><path d="M0,0h75a0,0 0 0 1 0,0v16.050000190734863a5,5 0 0 1 -5,5h-65a5,5 0 0 1 -5,-5v-16.050000190734863a0,0 0 0 1 0,0z" style="stroke: rgb(0, 0, 0); fill: rgb(255, 255, 255); stroke-width: 0px;"/><g class="node-argument"><rect rx="3" ry="3" x="3" y="3" width="69" height="15.050000190734863" style="fill: transparent;"/><text xml:space="preserve" x="6" y="14.440000534057617" style="font-family: -apple-system, BlinkMacSystemFont, &quot;Segoe WPC&quot;, &quot;Segoe UI&quot;, &quot;Ubuntu&quot;, &quot;Droid Sans&quot;, sans-serif, &quot;PingFang SC&quot;; font-size: 9px; font-weight: normal; text-rendering: geometricprecision; user-select: none;"><title>int64[1]</title><tspan style="font-weight: bold;">axes</tspan><tspan>〈1〉</tspan></text></g><line class="node" x1="0" x2="75" y1="0" y2="0" style="stroke: rgb(51, 51, 51); fill: none; stroke-width: 1px;"/></g><path class="node node-border" d="M5,0h65a5,5 0 0 1 5,5v31.425000190734863a5,5 0 0 1 -5,5h-65a5,5 0 0 1 -5,-5v-31.425000190734863a5,5 0 0 1 5,-5z" style="stroke: rgb(51, 51, 51); fill: none; stroke-width: 1px;"/></g><g id="node-name-/Mul" class="node graph-node" style="" transform="translate(163.7800006866455,248.43750047683716)"><g class="node-item node-item-type" transform="translate(0,0)"><path d="M5,0h65a5,5 0 0 1 5,5v15.375a0,0 0 0 1 0,0h-75a0,0 0 0 1 0,0v-15.375a5,5 0 0 1 5,-5z" style="stroke: rgb(0, 0, 0); fill: rgb(0, 0, 0); stroke-width: 0px;"/><text x="6" y="14.28499984741211" style="font-family: -apple-system, BlinkMacSystemFont, &quot;Segoe WPC&quot;, &quot;Segoe UI&quot;, &quot;Ubuntu&quot;, &quot;Droid Sans&quot;, sans-serif, &quot;PingFang SC&quot;; font-size: 11px; text-rendering: geometricprecision; user-select: none; fill: rgb(255, 255, 255);">Mul</text><title>/Mul</title></g><g class="node-argument-list" transform="translate(0,20.375)"><path d="M0,0h75a0,0 0 0 1 0,0v13.125a5,5 0 0 1 -5,5h-65a5,5 0 0 1 -5,-5v-13.125a0,0 0 0 1 0,0z" style="stroke: rgb(0, 0, 0); fill: rgb(255, 255, 255); stroke-width: 0px;"/><g class="node-argument"><rect rx="3" ry="3" x="3" y="3" width="69" height="12.125" style="fill: transparent;"/><text xml:space="preserve" x="6" y="12.414999961853027" style="font-family: -apple-system, BlinkMacSystemFont, &quot;Segoe WPC&quot;, &quot;Segoe UI&quot;, &quot;Ubuntu&quot;, &quot;Droid Sans&quot;, sans-serif, &quot;PingFang SC&quot;; font-size: 9px; font-weight: normal; text-rendering: geometricprecision; user-select: none;"><title>float32</title><tspan>B</tspan><tspan> = 0.5</tspan></text></g><line class="node" x1="0" x2="75" y1="0" y2="0" style="stroke: rgb(51, 51, 51); fill: none; stroke-width: 1px;"/></g><path class="node node-border" d="M5,0h65a5,5 0 0 1 5,5v28.5a5,5 0 0 1 -5,5h-65a5,5 0 0 1 -5,-5v-28.5a5,5 0 0 1 5,-5z" style="stroke: rgb(51, 51, 51); fill: none; stroke-width: 1px;"/></g><g id="node-name-/Sub" class="node graph-node" style="" transform="translate(21.177499771118164,329.6500005722046)"><g class="node-item node-item-type" transform="translate(0,0)"><path d="M5,0h22.645000457763672a5,5 0 0 1 5,5v10.375a5,5 0 0 1 -5,5h-22.645000457763672a5,5 0 0 1 -5,-5v-10.375a5,5 0 0 1 5,-5z" style="stroke: rgb(0, 0, 0); fill: rgb(0, 0, 0); stroke-width: 0px;"/><text x="6" y="14.28499984741211" style="font-family: -apple-system, BlinkMacSystemFont, &quot;Segoe WPC&quot;, &quot;Segoe UI&quot;, &quot;Ubuntu&quot;, &quot;Droid Sans&quot;, sans-serif, &quot;PingFang SC&quot;; font-size: 11px; text-rendering: geometricprecision; user-select: none; fill: rgb(255, 255, 255);">Sub</text><title>/Sub</title></g><path class="node node-border" d="M5,0h22.645000457763672a5,5 0 0 1 5,5v10.375a5,5 0 0 1 -5,5h-22.645000457763672a5,5 0 0 1 -5,-5v-10.375a5,5 0 0 1 5,-5z" style="stroke: rgb(51, 51, 51); fill: none; stroke-width: 1px;"/></g><g id="node-name-/Mul_1" class="node graph-node" style="" transform="translate(353.7800006866455,248.43750047683716)"><g class="node-item node-item-type" transform="translate(0,0)"><path d="M5,0h65a5,5 0 0 1 5,5v15.375a0,0 0 0 1 0,0h-75a0,0 0 0 1 0,0v-15.375a5,5 0 0 1 5,-5z" style="stroke: rgb(0, 0, 0); fill: rgb(0, 0, 0); stroke-width: 0px;"/><text x="6" y="14.28499984741211" style="font-family: -apple-system, BlinkMacSystemFont, &quot;Segoe WPC&quot;, &quot;Segoe UI&quot;, &quot;Ubuntu&quot;, &quot;Droid Sans&quot;, sans-serif, &quot;PingFang SC&quot;; font-size: 11px; text-rendering: geometricprecision; user-select: none; fill: rgb(255, 255, 255);">Mul</text><title>/Mul_1</title></g><g class="node-argument-list" transform="translate(0,20.375)"><path d="M0,0h75a0,0 0 0 1 0,0v13.125a5,5 0 0 1 -5,5h-65a5,5 0 0 1 -5,-5v-13.125a0,0 0 0 1 0,0z" style="stroke: rgb(0, 0, 0); fill: rgb(255, 255, 255); stroke-width: 0px;"/><g class="node-argument"><rect rx="3" ry="3" x="3" y="3" width="69" height="12.125" style="fill: transparent;"/><text xml:space="preserve" x="6" y="12.414999961853027" style="font-family: -apple-system, BlinkMacSystemFont, &quot;Segoe WPC&quot;, &quot;Segoe UI&quot;, &quot;Ubuntu&quot;, &quot;Droid Sans&quot;, sans-serif, &quot;PingFang SC&quot;; font-size: 9px; font-weight: normal; text-rendering: geometricprecision; user-select: none;"><title>float32</title><tspan>B</tspan><tspan> = 0.5</tspan></text></g><line class="node" x1="0" x2="75" y1="0" y2="0" style="stroke: rgb(51, 51, 51); fill: none; stroke-width: 1px;"/></g><path class="node node-border" d="M5,0h65a5,5 0 0 1 5,5v28.5a5,5 0 0 1 -5,5h-65a5,5 0 0 1 -5,-5v-28.5a5,5 0 0 1 5,-5z" style="stroke: rgb(51, 51, 51); fill: none; stroke-width: 1px;"/></g><g id="node-name-/Sub_1" class="node graph-node" style="" transform="translate(163.67749977111816,329.6500005722046)"><g class="node-item node-item-type" transform="translate(0,0)"><path d="M5,0h22.645000457763672a5,5 0 0 1 5,5v10.375a5,5 0 0 1 -5,5h-22.645000457763672a5,5 0 0 1 -5,-5v-10.375a5,5 0 0 1 5,-5z" style="stroke: rgb(0, 0, 0); fill: rgb(0, 0, 0); stroke-width: 0px;"/><text x="6" y="14.28499984741211" style="font-family: -apple-system, BlinkMacSystemFont, &quot;Segoe WPC&quot;, &quot;Segoe UI&quot;, &quot;Ubuntu&quot;, &quot;Droid Sans&quot;, sans-serif, &quot;PingFang SC&quot;; font-size: 11px; text-rendering: geometricprecision; user-select: none; fill: rgb(255, 255, 255);">Sub</text><title>/Sub_1</title></g><path class="node node-border" d="M5,0h22.645000457763672a5,5 0 0 1 5,5v10.375a5,5 0 0 1 -5,5h-22.645000457763672a5,5 0 0 1 -5,-5v-10.375a5,5 0 0 1 5,-5z" style="stroke: rgb(51, 51, 51); fill: none; stroke-width: 1px;"/></g><g id="node-name-/Add" class="node graph-node" style="" transform="translate(300.50600147247314,329.6500005722046)"><g class="node-item node-item-type" transform="translate(0,0)"><path d="M5,0h24.107999801635742a5,5 0 0 1 5,5v10.375a5,5 0 0 1 -5,5h-24.107999801635742a5,5 0 0 1 -5,-5v-10.375a5,5 0 0 1 5,-5z" style="stroke: rgb(0, 0, 0); fill: rgb(0, 0, 0); stroke-width: 0px;"/><text x="6" y="14.28499984741211" style="font-family: -apple-system, BlinkMacSystemFont, &quot;Segoe WPC&quot;, &quot;Segoe UI&quot;, &quot;Ubuntu&quot;, &quot;Droid Sans&quot;, sans-serif, &quot;PingFang SC&quot;; font-size: 11px; text-rendering: geometricprecision; user-select: none; fill: rgb(255, 255, 255);">Add</text><title>/Add</title></g><path class="node node-border" d="M5,0h24.107999801635742a5,5 0 0 1 5,5v10.375a5,5 0 0 1 -5,5h-24.107999801635742a5,5 0 0 1 -5,-5v-10.375a5,5 0 0 1 5,-5z" style="stroke: rgb(51, 51, 51); fill: none; stroke-width: 1px;"/></g><g id="node-name-/Add_1" class="node graph-node" style="" transform="translate(443.00600147247314,329.6500005722046)"><g class="node-item node-item-type" transform="translate(0,0)"><path d="M5,0h24.107999801635742a5,5 0 0 1 5,5v10.375a5,5 0 0 1 -5,5h-24.107999801635742a5,5 0 0 1 -5,-5v-10.375a5,5 0 0 1 5,-5z" style="stroke: rgb(0, 0, 0); fill: rgb(0, 0, 0); stroke-width: 0px;"/><text x="6" y="14.28499984741211" style="font-family: -apple-system, BlinkMacSystemFont, &quot;Segoe WPC&quot;, &quot;Segoe UI&quot;, &quot;Ubuntu&quot;, &quot;Droid Sans&quot;, sans-serif, &quot;PingFang SC&quot;; font-size: 11px; text-rendering: geometricprecision; user-select: none; fill: rgb(255, 255, 255);">Add</text><title>/Add_1</title></g><path class="node node-border" d="M5,0h24.107999801635742a5,5 0 0 1 5,5v10.375a5,5 0 0 1 -5,5h-24.107999801635742a5,5 0 0 1 -5,-5v-10.375a5,5 0 0 1 5,-5z" style="stroke: rgb(51, 51, 51); fill: none; stroke-width: 1px;"/></g><g id="node-name-/Unsqueeze" class="node graph-node" style="" transform="translate(0,391.2750005722046)"><g class="node-item node-item-type node-item-type-transform" transform="translate(0,0)"><path d="M5,0h65a5,5 0 0 1 5,5v15.375a0,0 0 0 1 0,0h-75a0,0 0 0 1 0,0v-15.375a5,5 0 0 1 5,-5z" style="stroke: rgb(0, 0, 0); fill: rgb(51, 85, 68); stroke-width: 0px;"/><text x="6" y="14.28499984741211" style="font-family: -apple-system, BlinkMacSystemFont, &quot;Segoe WPC&quot;, &quot;Segoe UI&quot;, &quot;Ubuntu&quot;, &quot;Droid Sans&quot;, sans-serif, &quot;PingFang SC&quot;; font-size: 11px; text-rendering: geometricprecision; user-select: none; fill: rgb(255, 255, 255);">Unsqueeze</text><title>/Unsqueeze</title></g><g class="node-argument-list" transform="translate(0,20.375)"><path d="M0,0h75a0,0 0 0 1 0,0v16.050000190734863a5,5 0 0 1 -5,5h-65a5,5 0 0 1 -5,-5v-16.050000190734863a0,0 0 0 1 0,0z" style="stroke: rgb(0, 0, 0); fill: rgb(255, 255, 255); stroke-width: 0px;"/><g class="node-argument"><rect rx="3" ry="3" x="3" y="3" width="69" height="15.050000190734863" style="fill: transparent;"/><text xml:space="preserve" x="6" y="14.440000534057617" style="font-family: -apple-system, BlinkMacSystemFont, &quot;Segoe WPC&quot;, &quot;Segoe UI&quot;, &quot;Ubuntu&quot;, &quot;Droid Sans&quot;, sans-serif, &quot;PingFang SC&quot;; font-size: 9px; font-weight: normal; text-rendering: geometricprecision; user-select: none;"><title>int64[1]</title><tspan style="font-weight: bold;">axes</tspan><tspan>〈1〉</tspan></text></g><line class="node" x1="0" x2="75" y1="0" y2="0" style="stroke: rgb(51, 51, 51); fill: none; stroke-width: 1px;"/></g><path class="node node-border" d="M5,0h65a5,5 0 0 1 5,5v31.425000190734863a5,5 0 0 1 -5,5h-65a5,5 0 0 1 -5,-5v-31.425000190734863a5,5 0 0 1 5,-5z" style="stroke: rgb(51, 51, 51); fill: none; stroke-width: 1px;"/></g><g id="node-name-/Unsqueeze_1" class="node graph-node" style="" transform="translate(142.5,391.2750005722046)"><g class="node-item node-item-type node-item-type-transform" transform="translate(0,0)"><path d="M5,0h65a5,5 0 0 1 5,5v15.375a0,0 0 0 1 0,0h-75a0,0 0 0 1 0,0v-15.375a5,5 0 0 1 5,-5z" style="stroke: rgb(0, 0, 0); fill: rgb(51, 85, 68); stroke-width: 0px;"/><text x="6" y="14.28499984741211" style="font-family: -apple-system, BlinkMacSystemFont, &quot;Segoe WPC&quot;, &quot;Segoe UI&quot;, &quot;Ubuntu&quot;, &quot;Droid Sans&quot;, sans-serif, &quot;PingFang SC&quot;; font-size: 11px; text-rendering: geometricprecision; user-select: none; fill: rgb(255, 255, 255);">Unsqueeze</text><title>/Unsqueeze_1</title></g><g class="node-argument-list" transform="translate(0,20.375)"><path d="M0,0h75a0,0 0 0 1 0,0v16.050000190734863a5,5 0 0 1 -5,5h-65a5,5 0 0 1 -5,-5v-16.050000190734863a0,0 0 0 1 0,0z" style="stroke: rgb(0, 0, 0); fill: rgb(255, 255, 255); stroke-width: 0px;"/><g class="node-argument"><rect rx="3" ry="3" x="3" y="3" width="69" height="15.050000190734863" style="fill: transparent;"/><text xml:space="preserve" x="6" y="14.440000534057617" style="font-family: -apple-system, BlinkMacSystemFont, &quot;Segoe WPC&quot;, &quot;Segoe UI&quot;, &quot;Ubuntu&quot;, &quot;Droid Sans&quot;, sans-serif, &quot;PingFang SC&quot;; font-size: 9px; font-weight: normal; text-rendering: geometricprecision; user-select: none;"><title>int64[1]</title><tspan style="font-weight: bold;">axes</tspan><tspan>〈1〉</tspan></text></g><line class="node" x1="0" x2="75" y1="0" y2="0" style="stroke: rgb(51, 51, 51); fill: none; stroke-width: 1px;"/></g><path class="node node-border" d="M5,0h65a5,5 0 0 1 5,5v31.425000190734863a5,5 0 0 1 -5,5h-65a5,5 0 0 1 -5,-5v-31.425000190734863a5,5 0 0 1 5,-5z" style="stroke: rgb(51, 51, 51); fill: none; stroke-width: 1px;"/></g><g id="node-name-/Unsqueeze_2" class="node graph-node" style="" transform="translate(280.060001373291,391.2750005722046)"><g class="node-item node-item-type node-item-type-transform" transform="translate(0,0)"><path d="M5,0h65a5,5 0 0 1 5,5v15.375a0,0 0 0 1 0,0h-75a0,0 0 0 1 0,0v-15.375a5,5 0 0 1 5,-5z" style="stroke: rgb(0, 0, 0); fill: rgb(51, 85, 68); stroke-width: 0px;"/><text x="6" y="14.28499984741211" style="font-family: -apple-system, BlinkMacSystemFont, &quot;Segoe WPC&quot;, &quot;Segoe UI&quot;, &quot;Ubuntu&quot;, &quot;Droid Sans&quot;, sans-serif, &quot;PingFang SC&quot;; font-size: 11px; text-rendering: geometricprecision; user-select: none; fill: rgb(255, 255, 255);">Unsqueeze</text><title>/Unsqueeze_2</title></g><g class="node-argument-list" transform="translate(0,20.375)"><path d="M0,0h75a0,0 0 0 1 0,0v16.050000190734863a5,5 0 0 1 -5,5h-65a5,5 0 0 1 -5,-5v-16.050000190734863a0,0 0 0 1 0,0z" style="stroke: rgb(0, 0, 0); fill: rgb(255, 255, 255); stroke-width: 0px;"/><g class="node-argument"><rect rx="3" ry="3" x="3" y="3" width="69" height="15.050000190734863" style="fill: transparent;"/><text xml:space="preserve" x="6" y="14.440000534057617" style="font-family: -apple-system, BlinkMacSystemFont, &quot;Segoe WPC&quot;, &quot;Segoe UI&quot;, &quot;Ubuntu&quot;, &quot;Droid Sans&quot;, sans-serif, &quot;PingFang SC&quot;; font-size: 9px; font-weight: normal; text-rendering: geometricprecision; user-select: none;"><title>int64[1]</title><tspan style="font-weight: bold;">axes</tspan><tspan>〈1〉</tspan></text></g><line class="node" x1="0" x2="75" y1="0" y2="0" style="stroke: rgb(51, 51, 51); fill: none; stroke-width: 1px;"/></g><path class="node node-border" d="M5,0h65a5,5 0 0 1 5,5v31.425000190734863a5,5 0 0 1 -5,5h-65a5,5 0 0 1 -5,-5v-31.425000190734863a5,5 0 0 1 5,-5z" style="stroke: rgb(51, 51, 51); fill: none; stroke-width: 1px;"/></g><g id="node-name-/Unsqueeze_3" class="node graph-node" style="" transform="translate(422.560001373291,391.2750005722046)"><g class="node-item node-item-type node-item-type-transform" transform="translate(0,0)"><path d="M5,0h65a5,5 0 0 1 5,5v15.375a0,0 0 0 1 0,0h-75a0,0 0 0 1 0,0v-15.375a5,5 0 0 1 5,-5z" style="stroke: rgb(0, 0, 0); fill: rgb(51, 85, 68); stroke-width: 0px;"/><text x="6" y="14.28499984741211" style="font-family: -apple-system, BlinkMacSystemFont, &quot;Segoe WPC&quot;, &quot;Segoe UI&quot;, &quot;Ubuntu&quot;, &quot;Droid Sans&quot;, sans-serif, &quot;PingFang SC&quot;; font-size: 11px; text-rendering: geometricprecision; user-select: none; fill: rgb(255, 255, 255);">Unsqueeze</text><title>/Unsqueeze_3</title></g><g class="node-argument-list" transform="translate(0,20.375)"><path d="M0,0h75a0,0 0 0 1 0,0v16.050000190734863a5,5 0 0 1 -5,5h-65a5,5 0 0 1 -5,-5v-16.050000190734863a0,0 0 0 1 0,0z" style="stroke: rgb(0, 0, 0); fill: rgb(255, 255, 255); stroke-width: 0px;"/><g class="node-argument"><rect rx="3" ry="3" x="3" y="3" width="69" height="15.050000190734863" style="fill: transparent;"/><text xml:space="preserve" x="6" y="14.440000534057617" style="font-family: -apple-system, BlinkMacSystemFont, &quot;Segoe WPC&quot;, &quot;Segoe UI&quot;, &quot;Ubuntu&quot;, &quot;Droid Sans&quot;, sans-serif, &quot;PingFang SC&quot;; font-size: 9px; font-weight: normal; text-rendering: geometricprecision; user-select: none;"><title>int64[1]</title><tspan style="font-weight: bold;">axes</tspan><tspan>〈1〉</tspan></text></g><line class="node" x1="0" x2="75" y1="0" y2="0" style="stroke: rgb(51, 51, 51); fill: none; stroke-width: 1px;"/></g><path class="node node-border" d="M5,0h65a5,5 0 0 1 5,5v31.425000190734863a5,5 0 0 1 -5,5h-65a5,5 0 0 1 -5,-5v-31.425000190734863a5,5 0 0 1 5,-5z" style="stroke: rgb(51, 51, 51); fill: none; stroke-width: 1px;"/></g><g id="node-name-/Concat" class="node graph-node" style="" transform="translate(224.41100120544434,473.95000076293945)"><g class="node-item node-item-type node-item-type-tensor" transform="translate(0,0)"><path d="M5,0h38.737998962402344a5,5 0 0 1 5,5v10.375a5,5 0 0 1 -5,5h-38.737998962402344a5,5 0 0 1 -5,-5v-10.375a5,5 0 0 1 5,-5z" style="stroke: rgb(0, 0, 0); fill: rgb(89, 66, 59); stroke-width: 0px;"/><text x="6" y="14.28499984741211" style="font-family: -apple-system, BlinkMacSystemFont, &quot;Segoe WPC&quot;, &quot;Segoe UI&quot;, &quot;Ubuntu&quot;, &quot;Droid Sans&quot;, sans-serif, &quot;PingFang SC&quot;; font-size: 11px; text-rendering: geometricprecision; user-select: none; fill: rgb(255, 255, 255);">Concat</text><title>/Concat</title></g><path class="node node-border" d="M5,0h38.737998962402344a5,5 0 0 1 5,5v10.375a5,5 0 0 1 -5,5h-38.737998962402344a5,5 0 0 1 -5,-5v-10.375a5,5 0 0 1 5,-5z" style="stroke: rgb(51, 51, 51); fill: none; stroke-width: 1px;"/></g><g class="node" style="" transform="translate(219.3730010986328,535.5750007629395)"><g class="node-item graph-item-output" transform="translate(0,0)"><path d="M5,0h48.81399917602539a5,5 0 0 1 5,5v10.375a5,5 0 0 1 -5,5h-48.81399917602539a5,5 0 0 1 -5,-5v-10.375a5,5 0 0 1 5,-5z" style="stroke: rgb(0, 0, 0); fill: rgb(238, 238, 238); stroke-width: 0px;"/><text x="6" y="14.28499984741211" style="font-family: -apple-system, BlinkMacSystemFont, &quot;Segoe WPC&quot;, &quot;Segoe UI&quot;, &quot;Ubuntu&quot;, &quot;Droid Sans&quot;, sans-serif, &quot;PingFang SC&quot;; font-size: 11px; text-rendering: geometricprecision; user-select: none;">xyxy_out</text><title>float32[8400,4]</title></g><path class="node node-border" d="M5,0h48.81399917602539a5,5 0 0 1 5,5v10.375a5,5 0 0 1 -5,5h-48.81399917602539a5,5 0 0 1 -5,-5v-10.375a5,5 0 0 1 5,-5z" style="stroke: rgb(51, 51, 51); fill: none; stroke-width: 1px;"/></g></g></g></svg>