<svg xmlns="http://www.w3.org/2000/svg" id="export" class="canvas" preserveAspectRatio="xMidYMid meet" style="" width="333" height="1008"><rect id="background" fill="#fff" pointer-events="all" width="333" height="1008"/><g id="origin" transform="translate(18.52434959411621, 15.116850280761719) scale(1)"><g id="clusters" class="clusters"/><g id="edge-paths" class="edge-paths" style="pointer-events: none;"><defs><marker id="arrowhead" viewBox="0 0 10 10" refX="9" refY="5" markerUnits="strokeWidth" markerWidth="8" markerHeight="6" orient="auto" style="fill: rgb(0, 0, 0);"><path d="M 0 0 L 10 5 L 0 10 L 4 5 z" style="stroke-width: 1px;"/></marker><marker id="arrowhead-select" viewBox="0 0 10 10" refX="9" refY="5" markerUnits="strokeWidth" markerWidth="8" markerHeight="6" orient="auto" style="fill: rgba(220, 0, 0, 0.9);"><path d="M 0 0 L 10 5 L 0 10 L 4 5 z" style="stroke-width: 1px;"/></marker><marker id="arrowhead-hover" viewBox="0 0 10 10" refX="9" refY="5" markerUnits="strokeWidth" markerWidth="8" markerHeight="6" orient="auto" style="fill: rgba(220, 0, 0, 0.9);"><path d="M 0 0 L 10 5 L 0 10 L 4 5 z" style="stroke-width: 1px;"/></marker></defs><path id="edge-xyxy_in" class="edge-path" d="M50.685001373291016,17.80135720552309L57.66016832987467,19.89696433793591C64.63533528645833,21.992571470348725,78.58566919962566,26.183785735174364,85.5608361562093,31.71689286758718C92.53600311279297,37.25,92.53600311279297,44.125,92.53600311279297,51C92.53600311279297,57.875,92.53600311279297,64.75,92.53600311279297,69.85416666666667C92.53600311279297,74.95833333333333,92.53600311279297,78.29166666666667,92.53600311279297,79.95833333333333L92.53600311279297,81.625" style="stroke: rgb(0, 0, 0); stroke-width: 1px; fill: none; marker-end: url(&quot;#arrowhead&quot;);"/><path id="edge-xyxy_in" class="edge-path" d="M10.833986754756962,20.375L8.460405743405053,22.041666666666668C6.086824732053144,23.708333333333332,1.3396627093493259,27.041666666666668,-1.033918302002583,32.145833333333336C-3.407499313354492,37.25,-3.407499313354492,44.125,-3.407499313354492,51C-3.407499313354492,57.875,-3.407499313354492,64.75,-3.407499313354492,73.30625001589458C-3.407499313354492,81.86250003178914,-3.407499313354492,92.10000006357829,-3.407499313354492,104.10833342870076C-3.407499313354492,116.11666679382324,-3.407499313354492,129.89583349227905,-3.407499313354492,144.9291668732961C-3.407499313354492,159.96250025431314,-3.407499313354492,176.25000031789145,-3.407499313354492,192.53750038146973C-3.407499313354492,208.825000445048,-3.407499313354492,225.1125005086263,-3.407499313354492,240.14583388964334C-3.407499313354492,255.1791672706604,-3.407499313354492,268.9583339691162,-3.407499313354492,282.737500667572C-3.407499313354492,296.51666736602783,-3.407499313354492,310.29583406448364,-3.407499313354492,324.07500076293945C-3.407499313354492,337.85416746139526,-3.407499313354492,351.6333341598511,-3.407499313354492,365.4125008583069C-3.407499313354492,379.1916675567627,-3.407499313354492,392.9708342552185,2.188443874490672,403.2979176044464C7.784387062335836,413.6250009536743,18.976273438026166,420.5000009536743,24.57221662587133,423.9375009536743L30.168159813716493,427.3750009536743" style="stroke: rgb(0, 0, 0); stroke-width: 1px; fill: none; marker-end: url(&quot;#arrowhead&quot;);"/><path id="edge-conf_in" class="edge-path" d="M212.54400444030762,20.332949949737827L208.37600421905518,22.006624958114855C204.20800399780273,23.680299966491884,195.87200355529785,27.02764998324594,191.7040033340454,32.138824991622975C187.53600311279297,37.25,187.53600311279297,44.125,187.53600311279297,51C187.53600311279297,57.875,187.53600311279297,64.75,187.53600311279297,69.85416666666667C187.53600311279297,74.95833333333333,187.53600311279297,78.29166666666667,187.53600311279297,79.95833333333333L187.53600311279297,81.625" style="stroke: rgb(0, 0, 0); stroke-width: 1px; fill: none; marker-end: url(&quot;#arrowhead&quot;);"/><path id="edge-conf_in" class="edge-path" d="M254.24071358601006,20.375L256.92884579433127,22.041666666666668C259.61697800265256,23.708333333333332,264.99324241929503,27.041666666666668,267.68137462761626,32.145833333333336C270.3695068359375,37.25,270.3695068359375,44.125,270.3695068359375,51C270.3695068359375,57.875,270.3695068359375,64.75,270.3695068359375,73.30625001589458C270.3695068359375,81.86250003178914,270.3695068359375,92.10000006357829,270.3695068359375,104.10833342870076C270.3695068359375,116.11666679382324,270.3695068359375,129.89583349227905,270.3695068359375,144.9291668732961C270.3695068359375,159.96250025431314,270.3695068359375,176.25000031789145,270.3695068359375,192.53750038146973C270.3695068359375,208.825000445048,270.3695068359375,225.1125005086263,270.3695068359375,240.14583388964334C270.3695068359375,255.1791672706604,270.3695068359375,268.9583339691162,270.3695068359375,282.737500667572C270.3695068359375,296.51666736602783,270.3695068359375,310.29583406448364,270.3695068359375,324.07500076293945C270.3695068359375,337.85416746139526,270.3695068359375,351.6333341598511,270.3695068359375,365.4125008583069C270.3695068359375,379.1916675567627,270.3695068359375,392.9708342552185,264.3485127849463,403.2979176044464C258.32751873395506,413.6250009536743,246.28553063197262,420.5000009536743,240.2645365809814,423.9375009536743L234.24354252999018,427.3750009536743" style="stroke: rgb(0, 0, 0); stroke-width: 1px; fill: none; marker-end: url(&quot;#arrowhead&quot;);"/><path id="edge-/Unsqueeze_output_0" class="edge-path" d="M92.53600311279297,123.05000019073486L92.53600311279297,126.48750019073486C92.53600311279297,129.92500019073486,92.53600311279297,136.80000019073486,95.87765057992279,143.67500019073486C99.21929804705263,150.55000019073486,105.9025929813123,157.42500019073486,109.24424044844211,160.86250019073486L112.58588791557194,164.30000019073486" style="stroke: rgb(0, 0, 0); stroke-width: 1px; fill: none; marker-end: url(&quot;#arrowhead&quot;);"/><path id="edge-/Unsqueeze_2_output_0" class="edge-path" d="M187.53600311279297,123.05000019073486L187.53600311279297,126.48750019073486C187.53600311279297,129.92500019073486,187.53600311279297,136.80000019073486,184.19435564566314,143.67500019073486C180.85270817853333,150.55000019073486,174.16941324427364,157.42500019073486,170.8277657771438,160.86250019073486L167.48611831001398,164.30000019073486" style="stroke: rgb(0, 0, 0); stroke-width: 1px; fill: none; marker-end: url(&quot;#arrowhead&quot;);"/><path id="edge-/NonMaxSuppression_output_0" class="edge-path" d="M140.03600311279297,220.7750005722046L140.03600311279297,224.2125005722046C140.03600311279297,227.6500005722046,140.03600311279297,234.5250005722046,140.03600311279297,241.4000005722046C140.03600311279297,248.2750005722046,140.03600311279297,255.1500005722046,140.03600311279297,258.5875005722046L140.03600311279297,262.0250005722046" style="stroke: rgb(0, 0, 0); stroke-width: 1px; fill: none; marker-end: url(&quot;#arrowhead&quot;);"/><path id="edge-/Gather_output_0" class="edge-path" d="M140.03600311279297,303.45000076293945L140.03600311279297,306.88750076293945C140.03600311279297,310.32500076293945,140.03600311279297,317.20000076293945,140.03600311279297,324.07500076293945C140.03600311279297,330.95000076293945,140.03600311279297,337.82500076293945,140.03600311279297,341.26250076293945L140.03600311279297,344.70000076293945" style="stroke: rgb(0, 0, 0); stroke-width: 1px; fill: none; marker-end: url(&quot;#arrowhead&quot;);"/><path id="edge-/Squeeze_output_0" class="edge-path" d="M126.963390366451,386.1250009536743L124.79382579874334,389.5625009536743C122.62426123103569,393.0000009536743,118.28513209562038,399.8750009536743,108.61933500572589,406.7500009536743C98.9535379158314,413.6250009536743,83.96107287145773,420.5000009536743,76.46484034927089,423.9375009536743L68.96860782708406,427.3750009536743" style="stroke: rgb(0, 0, 0); stroke-width: 1px; fill: none; marker-end: url(&quot;#arrowhead&quot;);"/><path id="edge-/Squeeze_output_0" class="edge-path" d="M153.10861585913494,386.1250009536743L155.2781804268426,389.5625009536743C157.44774499455025,393.0000009536743,161.78687412996555,399.8750009536743,169.56504443650067,406.7500009536743C177.3432147430358,413.6250009536743,188.56042622069074,420.5000009536743,194.1690319595182,423.9375009536743L199.7776376983457,427.3750009536743" style="stroke: rgb(0, 0, 0); stroke-width: 1px; fill: none; marker-end: url(&quot;#arrowhead&quot;);"/><path id="edge-/Gather_1_output_0" class="edge-path" d="M46.75250053405762,447.7500009536743L46.75250053405762,451.1875009536743C46.75250053405762,454.6250009536743,46.75250053405762,461.5000009536743,46.75250053405762,471.8270843029022C46.75250053405762,482.1541676521301,46.75250053405762,495.93333435058594,46.75250053405762,509.71250104904175C46.75250053405762,523.4916677474976,46.75250053405762,537.2708344459534,55.418251037597656,547.6570284617991C64.0840015411377,558.0432224776447,81.41550254821777,565.0364438108801,90.08125305175781,568.5330544774979L98.74700355529785,572.0296651441156" style="stroke: rgb(0, 0, 0); stroke-width: 1px; fill: none; marker-end: url(&quot;#arrowhead&quot;);"/><path id="edge-/Gather_2_output_0" class="edge-path" d="M216.39950561523438,447.7500009536743L216.39950561523438,451.1875009536743C216.39950561523438,454.6250009536743,216.39950561523438,461.5000009536743,216.39950561523438,468.3750009536743C216.39950561523438,475.2500009536743,216.39950561523438,482.1250009536743,216.39950561523438,485.5625009536743L216.39950561523438,489.0000009536743" style="stroke: rgb(0, 0, 0); stroke-width: 1px; fill: none; marker-end: url(&quot;#arrowhead&quot;);"/><path id="edge-/Unsqueeze_3_output_0" class="edge-path" d="M216.39950561523438,530.4250011444092L216.39950561523438,533.8625011444092C216.39950561523438,537.3000011444092,216.39950561523438,544.1750011444092,204.91375509897867,551.406362631154C193.428004582723,558.6377241178989,170.45650355021158,566.2254470913887,158.9707530339559,570.0193085781335L147.4850025177002,573.8131700648784" style="stroke: rgb(0, 0, 0); stroke-width: 1px; fill: none; marker-end: url(&quot;#arrowhead&quot;);"/><path id="edge-/Concat_output_0" class="edge-path" d="M112.14788841185657,592.0500011444092L108.44699083912445,595.4875011444092C104.74609326639234,598.9250011444092,97.3442981209281,605.8000011444092,93.64340054819598,612.6750011444092C89.94250297546387,619.5500011444092,89.94250297546387,626.4250011444092,89.94250297546387,629.8625011444092L89.94250297546387,633.3000011444092" style="stroke: rgb(0, 0, 0); stroke-width: 1px; fill: none; marker-end: url(&quot;#arrowhead&quot;);"/><path id="edge-/Concat_output_0" class="edge-path" d="M134.08411766114148,592.0500011444092L137.7850152338736,595.4875011444092C141.4859128066057,598.9250011444092,148.88770795206995,605.8000011444092,152.58860552480206,615.8833344777426C156.28950309753418,625.9666678110758,156.28950309753418,639.2583344777426,156.28950309753418,652.5500011444092C156.28950309753418,665.8416678110758,156.28950309753418,679.1333344777426,156.28950309753418,692.4250011444092C156.28950309753418,705.7166678110758,156.28950309753418,719.0083344777426,156.28950309753418,732.3000011444092C156.28950309753418,745.5916678110758,156.28950309753418,758.8833344777426,156.28950309753418,770.6645844777426C156.28950309753418,782.4458344777426,156.28950309753418,792.7166678110758,156.28950309753418,802.9875011444092C156.28950309753418,813.2583344777426,156.28950309753418,823.5291678110758,156.28950309753418,833.8000011444092C156.28950309753418,844.0708344777426,156.28950309753418,854.3416678110758,156.28950309753418,864.6125011444092C156.28950309753418,874.8833344777426,156.28950309753418,885.1541678110758,152.58860552480206,893.7270844777426C148.88770795206995,902.3000011444092,141.4859128066057,909.1750011444092,137.7850152338736,912.6125011444092L134.08411766114148,916.0500011444092" style="stroke: rgb(0, 0, 0); stroke-width: 1px; fill: none; marker-end: url(&quot;#arrowhead&quot;);"/><path id="edge-/Gather_3_output_0" class="edge-path" d="M89.94250297546387,671.8000011444092L89.94250297546387,675.2375011444092C89.94250297546387,678.6750011444092,89.94250297546387,685.5500011444092,89.94250297546387,692.4250011444092C89.94250297546387,699.3000011444092,89.94250297546387,706.1750011444092,89.94250297546387,709.6125011444092L89.94250297546387,713.0500011444092" style="stroke: rgb(0, 0, 0); stroke-width: 1px; fill: none; marker-end: url(&quot;#arrowhead&quot;);"/><path id="edge-/GreaterOrEqual_output_0" class="edge-path" d="M89.94250297546387,751.5500011444092L89.94250297546387,754.9875011444092C89.94250297546387,758.4250011444092,89.94250297546387,765.3000011444092,89.94250297546387,772.1750011444092C89.94250297546387,779.0500011444092,89.94250297546387,785.9250011444092,89.94250297546387,789.3625011444092L89.94250297546387,792.8000011444092" style="stroke: rgb(0, 0, 0); stroke-width: 1px; fill: none; marker-end: url(&quot;#arrowhead&quot;);"/><path id="edge-/NonZero_output_0" class="edge-path" d="M89.94250297546387,813.1750011444092L89.94250297546387,816.6125011444092C89.94250297546387,820.0500011444092,89.94250297546387,826.9250011444092,89.94250297546387,833.8000011444092C89.94250297546387,840.6750011444092,89.94250297546387,847.5500011444092,89.94250297546387,850.9875011444092L89.94250297546387,854.4250011444092" style="stroke: rgb(0, 0, 0); stroke-width: 1px; fill: none; marker-end: url(&quot;#arrowhead&quot;);"/><path id="edge-/Transpose_output_0" class="edge-path" d="M89.94250297546387,874.8000011444092L89.94250297546387,878.2375011444092C89.94250297546387,881.6750011444092,89.94250297546387,888.5500011444092,93.64340054819598,895.4250011444092C97.3442981209281,902.3000011444092,104.74609326639234,909.1750011444092,108.44699083912445,912.6125011444092L112.14788841185657,916.0500011444092" style="stroke: rgb(0, 0, 0); stroke-width: 1px; fill: none; marker-end: url(&quot;#arrowhead&quot;);"/><path id="edge-boxes_and_scores" class="edge-path" d="M123.11600303649902,936.4250011444092L123.11600303649902,938.0916678110758C123.11600303649902,939.7583344777426,123.11600303649902,943.0916678110758,123.11600303649902,946.4250011444092C123.11600303649902,949.7583344777426,123.11600303649902,953.0916678110758,123.11600303649902,954.7583344777426L123.11600303649902,956.4250011444092" style="stroke: rgb(0, 0, 0); stroke-width: 1px; fill: none; marker-end: url(&quot;#arrowhead&quot;);"/></g><g id="edge-labels" class="edge-labels"><text style="opacity: 1; font-family: -apple-system, BlinkMacSystemFont, &quot;Segoe WPC&quot;, &quot;Segoe UI&quot;, &quot;Ubuntu&quot;, &quot;Droid Sans&quot;, sans-serif, &quot;PingFang SC&quot;; font-size: 10px;" class="edge-label" id="edge-label-edge-xyxy_in" transform="translate(97.53600311279297,45.375)"><tspan xml:space="preserve" dy="1em" x="1">8400×4</tspan></text><text style="opacity: 1; font-family: -apple-system, BlinkMacSystemFont, &quot;Segoe WPC&quot;, &quot;Segoe UI&quot;, &quot;Ubuntu&quot;, &quot;Droid Sans&quot;, sans-serif, &quot;PingFang SC&quot;; font-size: 10px;" class="edge-label" id="edge-label-edge-xyxy_in" transform="translate(1.5925006866455078,186.91250038146973)"><tspan xml:space="preserve" dy="1em" x="1">8400×4</tspan></text><text style="opacity: 1; font-family: -apple-system, BlinkMacSystemFont, &quot;Segoe WPC&quot;, &quot;Segoe UI&quot;, &quot;Ubuntu&quot;, &quot;Droid Sans&quot;, sans-serif, &quot;PingFang SC&quot;; font-size: 10px;" class="edge-label" id="edge-label-edge-conf_in" transform="translate(192.53600311279297,45.375)"><tspan xml:space="preserve" dy="1em" x="1">8400</tspan></text><text style="opacity: 1; font-family: -apple-system, BlinkMacSystemFont, &quot;Segoe WPC&quot;, &quot;Segoe UI&quot;, &quot;Ubuntu&quot;, &quot;Droid Sans&quot;, sans-serif, &quot;PingFang SC&quot;; font-size: 10px;" class="edge-label" id="edge-label-edge-conf_in" transform="translate(275.3695068359375,186.91250038146973)"><tspan xml:space="preserve" dy="1em" x="1">8400</tspan></text><text style="opacity: 1; font-family: -apple-system, BlinkMacSystemFont, &quot;Segoe WPC&quot;, &quot;Segoe UI&quot;, &quot;Ubuntu&quot;, &quot;Droid Sans&quot;, sans-serif, &quot;PingFang SC&quot;; font-size: 10px;" class="edge-label" id="edge-label-edge-/Unsqueeze_output_0" transform="translate(97.53600311279297,138.05000019073486)"><tspan xml:space="preserve" dy="1em" x="1">1×8400×4</tspan></text><text style="opacity: 1; font-family: -apple-system, BlinkMacSystemFont, &quot;Segoe WPC&quot;, &quot;Segoe UI&quot;, &quot;Ubuntu&quot;, &quot;Droid Sans&quot;, sans-serif, &quot;PingFang SC&quot;; font-size: 10px;" class="edge-label" id="edge-label-edge-/Unsqueeze_2_output_0" transform="translate(192.53600311279297,138.05000019073486)"><tspan xml:space="preserve" dy="1em" x="1">1×1×8400</tspan></text><text style="opacity: 1; font-family: -apple-system, BlinkMacSystemFont, &quot;Segoe WPC&quot;, &quot;Segoe UI&quot;, &quot;Ubuntu&quot;, &quot;Droid Sans&quot;, sans-serif, &quot;PingFang SC&quot;; font-size: 10px;" class="edge-label" id="edge-label-edge-/NonMaxSuppression_output_0" transform="translate(145.03600311279297,235.7750005722046)"><tspan xml:space="preserve" dy="1em" x="1">unk__0×3</tspan></text><text style="opacity: 1; font-family: -apple-system, BlinkMacSystemFont, &quot;Segoe WPC&quot;, &quot;Segoe UI&quot;, &quot;Ubuntu&quot;, &quot;Droid Sans&quot;, sans-serif, &quot;PingFang SC&quot;; font-size: 10px;" class="edge-label" id="edge-label-edge-/Gather_output_0" transform="translate(145.03600311279297,318.45000076293945)"><tspan xml:space="preserve" dy="1em" x="1">unk__0×1</tspan></text><text style="opacity: 1; font-family: -apple-system, BlinkMacSystemFont, &quot;Segoe WPC&quot;, &quot;Segoe UI&quot;, &quot;Ubuntu&quot;, &quot;Droid Sans&quot;, sans-serif, &quot;PingFang SC&quot;; font-size: 10px;" class="edge-label" id="edge-label-edge-/Squeeze_output_0" transform="translate(118.94600296020508,401.1250009536743)"><tspan xml:space="preserve" dy="1em" x="1">unk__0</tspan></text><text style="opacity: 1; font-family: -apple-system, BlinkMacSystemFont, &quot;Segoe WPC&quot;, &quot;Segoe UI&quot;, &quot;Ubuntu&quot;, &quot;Droid Sans&quot;, sans-serif, &quot;PingFang SC&quot;; font-size: 10px;" class="edge-label" id="edge-label-edge-/Squeeze_output_0" transform="translate(171.12600326538086,401.1250009536743)"><tspan xml:space="preserve" dy="1em" x="1">unk__0</tspan></text><text style="opacity: 1; font-family: -apple-system, BlinkMacSystemFont, &quot;Segoe WPC&quot;, &quot;Segoe UI&quot;, &quot;Ubuntu&quot;, &quot;Droid Sans&quot;, sans-serif, &quot;PingFang SC&quot;; font-size: 10px;" class="edge-label" id="edge-label-edge-/Gather_1_output_0" transform="translate(51.75250053405762,504.08750104904175)"><tspan xml:space="preserve" dy="1em" x="1">unk__0×4</tspan></text><text style="opacity: 1; font-family: -apple-system, BlinkMacSystemFont, &quot;Segoe WPC&quot;, &quot;Segoe UI&quot;, &quot;Ubuntu&quot;, &quot;Droid Sans&quot;, sans-serif, &quot;PingFang SC&quot;; font-size: 10px;" class="edge-label" id="edge-label-edge-/Gather_2_output_0" transform="translate(221.39950561523438,462.7500009536743)"><tspan xml:space="preserve" dy="1em" x="1">unk__0</tspan></text><text style="opacity: 1; font-family: -apple-system, BlinkMacSystemFont, &quot;Segoe WPC&quot;, &quot;Segoe UI&quot;, &quot;Ubuntu&quot;, &quot;Droid Sans&quot;, sans-serif, &quot;PingFang SC&quot;; font-size: 10px;" class="edge-label" id="edge-label-edge-/Unsqueeze_3_output_0" transform="translate(221.39950561523438,545.4250011444092)"><tspan xml:space="preserve" dy="1em" x="1">unk__0×1</tspan></text><text style="opacity: 1; font-family: -apple-system, BlinkMacSystemFont, &quot;Segoe WPC&quot;, &quot;Segoe UI&quot;, &quot;Ubuntu&quot;, &quot;Droid Sans&quot;, sans-serif, &quot;PingFang SC&quot;; font-size: 10px;" class="edge-label" id="edge-label-edge-/Concat_output_0" transform="translate(94.94250297546387,607.0500011444092)"><tspan xml:space="preserve" dy="1em" x="1">unk__0×5</tspan></text><text style="opacity: 1; font-family: -apple-system, BlinkMacSystemFont, &quot;Segoe WPC&quot;, &quot;Segoe UI&quot;, &quot;Ubuntu&quot;, &quot;Droid Sans&quot;, sans-serif, &quot;PingFang SC&quot;; font-size: 10px;" class="edge-label" id="edge-label-edge-/Concat_output_0" transform="translate(161.28950309753418,766.5500011444092)"><tspan xml:space="preserve" dy="1em" x="1">unk__0×5</tspan></text><text style="opacity: 1; font-family: -apple-system, BlinkMacSystemFont, &quot;Segoe WPC&quot;, &quot;Segoe UI&quot;, &quot;Ubuntu&quot;, &quot;Droid Sans&quot;, sans-serif, &quot;PingFang SC&quot;; font-size: 10px;" class="edge-label" id="edge-label-edge-/Gather_3_output_0" transform="translate(94.94250297546387,686.8000011444092)"><tspan xml:space="preserve" dy="1em" x="1">unk__0</tspan></text><text style="opacity: 1; font-family: -apple-system, BlinkMacSystemFont, &quot;Segoe WPC&quot;, &quot;Segoe UI&quot;, &quot;Ubuntu&quot;, &quot;Droid Sans&quot;, sans-serif, &quot;PingFang SC&quot;; font-size: 10px;" class="edge-label" id="edge-label-edge-/GreaterOrEqual_output_0" transform="translate(94.94250297546387,766.5500011444092)"><tspan xml:space="preserve" dy="1em" x="1">unk__0</tspan></text><text style="opacity: 1; font-family: -apple-system, BlinkMacSystemFont, &quot;Segoe WPC&quot;, &quot;Segoe UI&quot;, &quot;Ubuntu&quot;, &quot;Droid Sans&quot;, sans-serif, &quot;PingFang SC&quot;; font-size: 10px;" class="edge-label" id="edge-label-edge-/NonZero_output_0" transform="translate(94.94250297546387,828.1750011444092)"><tspan xml:space="preserve" dy="1em" x="1">1×unk__1</tspan></text><text style="opacity: 1; font-family: -apple-system, BlinkMacSystemFont, &quot;Segoe WPC&quot;, &quot;Segoe UI&quot;, &quot;Ubuntu&quot;, &quot;Droid Sans&quot;, sans-serif, &quot;PingFang SC&quot;; font-size: 10px;" class="edge-label" id="edge-label-edge-/Transpose_output_0" transform="translate(94.94250297546387,889.8000011444092)"><tspan xml:space="preserve" dy="1em" x="1">unk__1×1</tspan></text></g><g id="nodes" class="nodes"><g id="input-name-xyxy_in" class="node graph-input" style="" transform="translate(0,0)"><g class="node-item graph-item-input" transform="translate(0,0)"><path d="M5,0h40.685001373291016a5,5 0 0 1 5,5v10.375a5,5 0 0 1 -5,5h-40.685001373291016a5,5 0 0 1 -5,-5v-10.375a5,5 0 0 1 5,-5z" style="stroke: rgb(0, 0, 0); fill: rgb(238, 238, 238); stroke-width: 0px;"/><text x="6" y="14.28499984741211" style="font-family: -apple-system, BlinkMacSystemFont, &quot;Segoe WPC&quot;, &quot;Segoe UI&quot;, &quot;Ubuntu&quot;, &quot;Droid Sans&quot;, sans-serif, &quot;PingFang SC&quot;; font-size: 11px; text-rendering: geometricprecision; user-select: none;">xyxy_in</text><title>float32[8400,4]</title></g><path class="node node-border" d="M5,0h40.685001373291016a5,5 0 0 1 5,5v10.375a5,5 0 0 1 -5,5h-40.685001373291016a5,5 0 0 1 -5,-5v-10.375a5,5 0 0 1 5,-5z" style="stroke: rgb(51, 51, 51); fill: none; stroke-width: 1px;"/></g><g id="input-name-conf_in" class="node graph-input" style="" transform="translate(212.54400444030762,0)"><g class="node-item graph-item-input" transform="translate(0,0)"><path d="M5,0h40.531002044677734a5,5 0 0 1 5,5v10.375a5,5 0 0 1 -5,5h-40.531002044677734a5,5 0 0 1 -5,-5v-10.375a5,5 0 0 1 5,-5z" style="stroke: rgb(0, 0, 0); fill: rgb(238, 238, 238); stroke-width: 0px;"/><text x="6" y="14.28499984741211" style="font-family: -apple-system, BlinkMacSystemFont, &quot;Segoe WPC&quot;, &quot;Segoe UI&quot;, &quot;Ubuntu&quot;, &quot;Droid Sans&quot;, sans-serif, &quot;PingFang SC&quot;; font-size: 11px; text-rendering: geometricprecision; user-select: none;">conf_in</text><title>float32[8400]</title></g><path class="node node-border" d="M5,0h40.531002044677734a5,5 0 0 1 5,5v10.375a5,5 0 0 1 -5,5h-40.531002044677734a5,5 0 0 1 -5,-5v-10.375a5,5 0 0 1 5,-5z" style="stroke: rgb(51, 51, 51); fill: none; stroke-width: 1px;"/></g><g id="node-name-/Unsqueeze" class="node graph-node" style="" transform="translate(55.03600311279297,81.625)"><g class="node-item node-item-type node-item-type-transform" transform="translate(0,0)"><path d="M5,0h65a5,5 0 0 1 5,5v15.375a0,0 0 0 1 0,0h-75a0,0 0 0 1 0,0v-15.375a5,5 0 0 1 5,-5z" style="stroke: rgb(0, 0, 0); fill: rgb(51, 85, 68); stroke-width: 0px;"/><text x="6" y="14.28499984741211" style="font-family: -apple-system, BlinkMacSystemFont, &quot;Segoe WPC&quot;, &quot;Segoe UI&quot;, &quot;Ubuntu&quot;, &quot;Droid Sans&quot;, sans-serif, &quot;PingFang SC&quot;; font-size: 11px; text-rendering: geometricprecision; user-select: none; fill: rgb(255, 255, 255);">Unsqueeze</text><title>/Unsqueeze</title></g><g class="node-argument-list" transform="translate(0,20.375)"><path d="M0,0h75a0,0 0 0 1 0,0v16.050000190734863a5,5 0 0 1 -5,5h-65a5,5 0 0 1 -5,-5v-16.050000190734863a0,0 0 0 1 0,0z" style="stroke: rgb(0, 0, 0); fill: rgb(255, 255, 255); stroke-width: 0px;"/><g class="node-argument"><rect rx="3" ry="3" x="3" y="3" width="69" height="15.050000190734863" style="fill: transparent;"/><text xml:space="preserve" x="6" y="14.440000534057617" style="font-family: -apple-system, BlinkMacSystemFont, &quot;Segoe WPC&quot;, &quot;Segoe UI&quot;, &quot;Ubuntu&quot;, &quot;Droid Sans&quot;, sans-serif, &quot;PingFang SC&quot;; font-size: 9px; font-weight: normal; text-rendering: geometricprecision; user-select: none;"><title>int64[1]</title><tspan style="font-weight: bold;">axes</tspan><tspan>〈1〉</tspan></text></g><line class="node" x1="0" x2="75" y1="0" y2="0" style="stroke: rgb(51, 51, 51); fill: none; stroke-width: 1px;"/></g><path class="node node-border" d="M5,0h65a5,5 0 0 1 5,5v31.425000190734863a5,5 0 0 1 -5,5h-65a5,5 0 0 1 -5,-5v-31.425000190734863a5,5 0 0 1 5,-5z" style="stroke: rgb(51, 51, 51); fill: none; stroke-width: 1px;"/></g><g id="node-name-/Unsqueeze_2" class="node graph-node" style="" transform="translate(150.03600311279297,81.625)"><g class="node-item node-item-type node-item-type-transform" transform="translate(0,0)"><path d="M5,0h65a5,5 0 0 1 5,5v15.375a0,0 0 0 1 0,0h-75a0,0 0 0 1 0,0v-15.375a5,5 0 0 1 5,-5z" style="stroke: rgb(0, 0, 0); fill: rgb(51, 85, 68); stroke-width: 0px;"/><text x="6" y="14.28499984741211" style="font-family: -apple-system, BlinkMacSystemFont, &quot;Segoe WPC&quot;, &quot;Segoe UI&quot;, &quot;Ubuntu&quot;, &quot;Droid Sans&quot;, sans-serif, &quot;PingFang SC&quot;; font-size: 11px; text-rendering: geometricprecision; user-select: none; fill: rgb(255, 255, 255);">Unsqueeze</text><title>/Unsqueeze_2</title></g><g class="node-argument-list" transform="translate(0,20.375)"><path d="M0,0h75a0,0 0 0 1 0,0v16.050000190734863a5,5 0 0 1 -5,5h-65a5,5 0 0 1 -5,-5v-16.050000190734863a0,0 0 0 1 0,0z" style="stroke: rgb(0, 0, 0); fill: rgb(255, 255, 255); stroke-width: 0px;"/><g class="node-argument"><rect rx="3" ry="3" x="3" y="3" width="69" height="15.050000190734863" style="fill: transparent;"/><text xml:space="preserve" x="6" y="14.440000534057617" style="font-family: -apple-system, BlinkMacSystemFont, &quot;Segoe WPC&quot;, &quot;Segoe UI&quot;, &quot;Ubuntu&quot;, &quot;Droid Sans&quot;, sans-serif, &quot;PingFang SC&quot;; font-size: 9px; font-weight: normal; text-rendering: geometricprecision; user-select: none;"><title>int64[2]</title><tspan style="font-weight: bold;">axes</tspan><tspan>〈2〉</tspan></text></g><line class="node" x1="0" x2="75" y1="0" y2="0" style="stroke: rgb(51, 51, 51); fill: none; stroke-width: 1px;"/></g><path class="node node-border" d="M5,0h65a5,5 0 0 1 5,5v31.425000190734863a5,5 0 0 1 -5,5h-65a5,5 0 0 1 -5,-5v-31.425000190734863a5,5 0 0 1 5,-5z" style="stroke: rgb(51, 51, 51); fill: none; stroke-width: 1px;"/></g><g id="node-name-/NonMaxSuppression" class="node graph-node" style="" transform="translate(59.48899841308594,164.30000019073486)"><g class="node-item node-item-type" transform="translate(0,0)"><path d="M5,0h151.09400939941406a5,5 0 0 1 5,5v15.375a0,0 0 0 1 0,0h-161.09400939941406a0,0 0 0 1 0,0v-15.375a5,5 0 0 1 5,-5z" style="stroke: rgb(0, 0, 0); fill: rgb(0, 0, 0); stroke-width: 0px;"/><text x="6" y="14.28499984741211" style="font-family: -apple-system, BlinkMacSystemFont, &quot;Segoe WPC&quot;, &quot;Segoe UI&quot;, &quot;Ubuntu&quot;, &quot;Droid Sans&quot;, sans-serif, &quot;PingFang SC&quot;; font-size: 11px; text-rendering: geometricprecision; user-select: none; fill: rgb(255, 255, 255);">NonMaxSuppression</text><title>/NonMaxSuppression</title></g><g class="node-argument-list" transform="translate(0,20.375)"><path d="M0,0h161.09400939941406a0,0 0 0 1 0,0v31.100000381469727a5,5 0 0 1 -5,5h-151.09400939941406a5,5 0 0 1 -5,-5v-31.100000381469727a0,0 0 0 1 0,0z" style="stroke: rgb(0, 0, 0); fill: rgb(255, 255, 255); stroke-width: 0px;"/><g class="node-argument"><rect rx="3" ry="3" x="3" y="3" width="155.09400939941406" height="15.050000190734863" style="fill: transparent;"/><text xml:space="preserve" x="6" y="14.440000534057617" style="font-family: -apple-system, BlinkMacSystemFont, &quot;Segoe WPC&quot;, &quot;Segoe UI&quot;, &quot;Ubuntu&quot;, &quot;Droid Sans&quot;, sans-serif, &quot;PingFang SC&quot;; font-size: 9px; font-weight: normal; text-rendering: geometricprecision; user-select: none;"><title>int64[1]</title><tspan style="font-weight: bold;">max_output_boxes_per_class</tspan><tspan>〈1〉</tspan></text></g><g class="node-argument"><rect rx="3" ry="3" x="3" y="18.050000190734863" width="155.09400939941406" height="15.050000190734863" style="fill: transparent;"/><text xml:space="preserve" x="6" y="29.49000072479248" style="font-family: -apple-system, BlinkMacSystemFont, &quot;Segoe WPC&quot;, &quot;Segoe UI&quot;, &quot;Ubuntu&quot;, &quot;Droid Sans&quot;, sans-serif, &quot;PingFang SC&quot;; font-size: 9px; font-weight: normal; text-rendering: geometricprecision; user-select: none;"><title>float32[1]</title><tspan style="font-weight: bold;">iou_threshold</tspan><tspan>〈1〉</tspan></text></g><line class="node" x1="0" x2="161.09400939941406" y1="0" y2="0" style="stroke: rgb(51, 51, 51); fill: none; stroke-width: 1px;"/></g><path class="node node-border" d="M5,0h151.09400939941406a5,5 0 0 1 5,5v46.47500038146973a5,5 0 0 1 -5,5h-151.09400939941406a5,5 0 0 1 -5,-5v-46.47500038146973a5,5 0 0 1 5,-5z" style="stroke: rgb(51, 51, 51); fill: none; stroke-width: 1px;"/></g><g id="node-name-/Gather" class="node graph-node" style="" transform="translate(102.53600311279297,262.0250005722046)"><g class="node-item node-item-type node-item-type-transform" transform="translate(0,0)"><path d="M5,0h65a5,5 0 0 1 5,5v15.375a0,0 0 0 1 0,0h-75a0,0 0 0 1 0,0v-15.375a5,5 0 0 1 5,-5z" style="stroke: rgb(0, 0, 0); fill: rgb(51, 85, 68); stroke-width: 0px;"/><text x="6" y="14.28499984741211" style="font-family: -apple-system, BlinkMacSystemFont, &quot;Segoe WPC&quot;, &quot;Segoe UI&quot;, &quot;Ubuntu&quot;, &quot;Droid Sans&quot;, sans-serif, &quot;PingFang SC&quot;; font-size: 11px; text-rendering: geometricprecision; user-select: none; fill: rgb(255, 255, 255);">Gather</text><title>/Gather</title></g><g class="node-argument-list" transform="translate(0,20.375)"><path d="M0,0h75a0,0 0 0 1 0,0v16.050000190734863a5,5 0 0 1 -5,5h-65a5,5 0 0 1 -5,-5v-16.050000190734863a0,0 0 0 1 0,0z" style="stroke: rgb(0, 0, 0); fill: rgb(255, 255, 255); stroke-width: 0px;"/><g class="node-argument"><rect rx="3" ry="3" x="3" y="3" width="69" height="15.050000190734863" style="fill: transparent;"/><text xml:space="preserve" x="6" y="14.440000534057617" style="font-family: -apple-system, BlinkMacSystemFont, &quot;Segoe WPC&quot;, &quot;Segoe UI&quot;, &quot;Ubuntu&quot;, &quot;Droid Sans&quot;, sans-serif, &quot;PingFang SC&quot;; font-size: 9px; font-weight: normal; text-rendering: geometricprecision; user-select: none;"><title>int64[1]</title><tspan style="font-weight: bold;">indices</tspan><tspan>〈1〉</tspan></text></g><line class="node" x1="0" x2="75" y1="0" y2="0" style="stroke: rgb(51, 51, 51); fill: none; stroke-width: 1px;"/></g><path class="node node-border" d="M5,0h65a5,5 0 0 1 5,5v31.425000190734863a5,5 0 0 1 -5,5h-65a5,5 0 0 1 -5,-5v-31.425000190734863a5,5 0 0 1 5,-5z" style="stroke: rgb(51, 51, 51); fill: none; stroke-width: 1px;"/></g><g id="node-name-/Squeeze" class="node graph-node" style="" transform="translate(102.53600311279297,344.70000076293945)"><g class="node-item node-item-type node-item-type-transform" transform="translate(0,0)"><path d="M5,0h65a5,5 0 0 1 5,5v15.375a0,0 0 0 1 0,0h-75a0,0 0 0 1 0,0v-15.375a5,5 0 0 1 5,-5z" style="stroke: rgb(0, 0, 0); fill: rgb(51, 85, 68); stroke-width: 0px;"/><text x="6" y="14.28499984741211" style="font-family: -apple-system, BlinkMacSystemFont, &quot;Segoe WPC&quot;, &quot;Segoe UI&quot;, &quot;Ubuntu&quot;, &quot;Droid Sans&quot;, sans-serif, &quot;PingFang SC&quot;; font-size: 11px; text-rendering: geometricprecision; user-select: none; fill: rgb(255, 255, 255);">Squeeze</text><title>/Squeeze</title></g><g class="node-argument-list" transform="translate(0,20.375)"><path d="M0,0h75a0,0 0 0 1 0,0v16.050000190734863a5,5 0 0 1 -5,5h-65a5,5 0 0 1 -5,-5v-16.050000190734863a0,0 0 0 1 0,0z" style="stroke: rgb(0, 0, 0); fill: rgb(255, 255, 255); stroke-width: 0px;"/><g class="node-argument"><rect rx="3" ry="3" x="3" y="3" width="69" height="15.050000190734863" style="fill: transparent;"/><text xml:space="preserve" x="6" y="14.440000534057617" style="font-family: -apple-system, BlinkMacSystemFont, &quot;Segoe WPC&quot;, &quot;Segoe UI&quot;, &quot;Ubuntu&quot;, &quot;Droid Sans&quot;, sans-serif, &quot;PingFang SC&quot;; font-size: 9px; font-weight: normal; text-rendering: geometricprecision; user-select: none;"><title>int64[1]</title><tspan style="font-weight: bold;">axes</tspan><tspan>〈1〉</tspan></text></g><line class="node" x1="0" x2="75" y1="0" y2="0" style="stroke: rgb(51, 51, 51); fill: none; stroke-width: 1px;"/></g><path class="node node-border" d="M5,0h65a5,5 0 0 1 5,5v31.425000190734863a5,5 0 0 1 -5,5h-65a5,5 0 0 1 -5,-5v-31.425000190734863a5,5 0 0 1 5,-5z" style="stroke: rgb(51, 51, 51); fill: none; stroke-width: 1px;"/></g><g id="node-name-/Gather_1" class="node graph-node" style="" transform="translate(22.636499404907227,427.3750009536743)"><g class="node-item node-item-type node-item-type-transform" transform="translate(0,0)"><path d="M5,0h38.23200225830078a5,5 0 0 1 5,5v10.375a5,5 0 0 1 -5,5h-38.23200225830078a5,5 0 0 1 -5,-5v-10.375a5,5 0 0 1 5,-5z" style="stroke: rgb(0, 0, 0); fill: rgb(51, 85, 68); stroke-width: 0px;"/><text x="6" y="14.28499984741211" style="font-family: -apple-system, BlinkMacSystemFont, &quot;Segoe WPC&quot;, &quot;Segoe UI&quot;, &quot;Ubuntu&quot;, &quot;Droid Sans&quot;, sans-serif, &quot;PingFang SC&quot;; font-size: 11px; text-rendering: geometricprecision; user-select: none; fill: rgb(255, 255, 255);">Gather</text><title>/Gather_1</title></g><path class="node node-border" d="M5,0h38.23200225830078a5,5 0 0 1 5,5v10.375a5,5 0 0 1 -5,5h-38.23200225830078a5,5 0 0 1 -5,-5v-10.375a5,5 0 0 1 5,-5z" style="stroke: rgb(51, 51, 51); fill: none; stroke-width: 1px;"/></g><g id="node-name-/Gather_2" class="node graph-node" style="" transform="translate(192.28350448608398,427.3750009536743)"><g class="node-item node-item-type node-item-type-transform" transform="translate(0,0)"><path d="M5,0h38.23200225830078a5,5 0 0 1 5,5v10.375a5,5 0 0 1 -5,5h-38.23200225830078a5,5 0 0 1 -5,-5v-10.375a5,5 0 0 1 5,-5z" style="stroke: rgb(0, 0, 0); fill: rgb(51, 85, 68); stroke-width: 0px;"/><text x="6" y="14.28499984741211" style="font-family: -apple-system, BlinkMacSystemFont, &quot;Segoe WPC&quot;, &quot;Segoe UI&quot;, &quot;Ubuntu&quot;, &quot;Droid Sans&quot;, sans-serif, &quot;PingFang SC&quot;; font-size: 11px; text-rendering: geometricprecision; user-select: none; fill: rgb(255, 255, 255);">Gather</text><title>/Gather_2</title></g><path class="node node-border" d="M5,0h38.23200225830078a5,5 0 0 1 5,5v10.375a5,5 0 0 1 -5,5h-38.23200225830078a5,5 0 0 1 -5,-5v-10.375a5,5 0 0 1 5,-5z" style="stroke: rgb(51, 51, 51); fill: none; stroke-width: 1px;"/></g><g id="node-name-/Unsqueeze_3" class="node graph-node" style="" transform="translate(178.89950561523438,489.0000009536743)"><g class="node-item node-item-type node-item-type-transform" transform="translate(0,0)"><path d="M5,0h65a5,5 0 0 1 5,5v15.375a0,0 0 0 1 0,0h-75a0,0 0 0 1 0,0v-15.375a5,5 0 0 1 5,-5z" style="stroke: rgb(0, 0, 0); fill: rgb(51, 85, 68); stroke-width: 0px;"/><text x="6" y="14.28499984741211" style="font-family: -apple-system, BlinkMacSystemFont, &quot;Segoe WPC&quot;, &quot;Segoe UI&quot;, &quot;Ubuntu&quot;, &quot;Droid Sans&quot;, sans-serif, &quot;PingFang SC&quot;; font-size: 11px; text-rendering: geometricprecision; user-select: none; fill: rgb(255, 255, 255);">Unsqueeze</text><title>/Unsqueeze_3</title></g><g class="node-argument-list" transform="translate(0,20.375)"><path d="M0,0h75a0,0 0 0 1 0,0v16.050000190734863a5,5 0 0 1 -5,5h-65a5,5 0 0 1 -5,-5v-16.050000190734863a0,0 0 0 1 0,0z" style="stroke: rgb(0, 0, 0); fill: rgb(255, 255, 255); stroke-width: 0px;"/><g class="node-argument"><rect rx="3" ry="3" x="3" y="3" width="69" height="15.050000190734863" style="fill: transparent;"/><text xml:space="preserve" x="6" y="14.440000534057617" style="font-family: -apple-system, BlinkMacSystemFont, &quot;Segoe WPC&quot;, &quot;Segoe UI&quot;, &quot;Ubuntu&quot;, &quot;Droid Sans&quot;, sans-serif, &quot;PingFang SC&quot;; font-size: 9px; font-weight: normal; text-rendering: geometricprecision; user-select: none;"><title>int64[1]</title><tspan style="font-weight: bold;">axes</tspan><tspan>〈1〉</tspan></text></g><line class="node" x1="0" x2="75" y1="0" y2="0" style="stroke: rgb(51, 51, 51); fill: none; stroke-width: 1px;"/></g><path class="node node-border" d="M5,0h65a5,5 0 0 1 5,5v31.425000190734863a5,5 0 0 1 -5,5h-65a5,5 0 0 1 -5,-5v-31.425000190734863a5,5 0 0 1 5,-5z" style="stroke: rgb(51, 51, 51); fill: none; stroke-width: 1px;"/></g><g id="node-name-/Concat" class="node graph-node" style="" transform="translate(98.74700355529785,571.6750011444092)"><g class="node-item node-item-type node-item-type-tensor" transform="translate(0,0)"><path d="M5,0h38.737998962402344a5,5 0 0 1 5,5v10.375a5,5 0 0 1 -5,5h-38.737998962402344a5,5 0 0 1 -5,-5v-10.375a5,5 0 0 1 5,-5z" style="stroke: rgb(0, 0, 0); fill: rgb(89, 66, 59); stroke-width: 0px;"/><text x="6" y="14.28499984741211" style="font-family: -apple-system, BlinkMacSystemFont, &quot;Segoe WPC&quot;, &quot;Segoe UI&quot;, &quot;Ubuntu&quot;, &quot;Droid Sans&quot;, sans-serif, &quot;PingFang SC&quot;; font-size: 11px; text-rendering: geometricprecision; user-select: none; fill: rgb(255, 255, 255);">Concat</text><title>/Concat</title></g><path class="node node-border" d="M5,0h38.737998962402344a5,5 0 0 1 5,5v10.375a5,5 0 0 1 -5,5h-38.737998962402344a5,5 0 0 1 -5,-5v-10.375a5,5 0 0 1 5,-5z" style="stroke: rgb(51, 51, 51); fill: none; stroke-width: 1px;"/></g><g id="node-name-/Gather_3" class="node graph-node" style="" transform="translate(52.44250297546387,633.3000011444092)"><g class="node-item node-item-type node-item-type-transform" transform="translate(0,0)"><path d="M5,0h65a5,5 0 0 1 5,5v15.375a0,0 0 0 1 0,0h-75a0,0 0 0 1 0,0v-15.375a5,5 0 0 1 5,-5z" style="stroke: rgb(0, 0, 0); fill: rgb(51, 85, 68); stroke-width: 0px;"/><text x="6" y="14.28499984741211" style="font-family: -apple-system, BlinkMacSystemFont, &quot;Segoe WPC&quot;, &quot;Segoe UI&quot;, &quot;Ubuntu&quot;, &quot;Droid Sans&quot;, sans-serif, &quot;PingFang SC&quot;; font-size: 11px; text-rendering: geometricprecision; user-select: none; fill: rgb(255, 255, 255);">Gather</text><title>/Gather_3</title></g><g class="node-argument-list" transform="translate(0,20.375)"><path d="M0,0h75a0,0 0 0 1 0,0v13.125a5,5 0 0 1 -5,5h-65a5,5 0 0 1 -5,-5v-13.125a0,0 0 0 1 0,0z" style="stroke: rgb(0, 0, 0); fill: rgb(255, 255, 255); stroke-width: 0px;"/><g class="node-argument"><rect rx="3" ry="3" x="3" y="3" width="69" height="12.125" style="fill: transparent;"/><text xml:space="preserve" x="6" y="12.414999961853027" style="font-family: -apple-system, BlinkMacSystemFont, &quot;Segoe WPC&quot;, &quot;Segoe UI&quot;, &quot;Ubuntu&quot;, &quot;Droid Sans&quot;, sans-serif, &quot;PingFang SC&quot;; font-size: 9px; font-weight: normal; text-rendering: geometricprecision; user-select: none;"><title>int64</title><tspan>indices</tspan><tspan> = 4</tspan></text></g><line class="node" x1="0" x2="75" y1="0" y2="0" style="stroke: rgb(51, 51, 51); fill: none; stroke-width: 1px;"/></g><path class="node node-border" d="M5,0h65a5,5 0 0 1 5,5v28.5a5,5 0 0 1 -5,5h-65a5,5 0 0 1 -5,-5v-28.5a5,5 0 0 1 5,-5z" style="stroke: rgb(51, 51, 51); fill: none; stroke-width: 1px;"/></g><g id="node-name-/GreaterOrEqual" class="node graph-node" style="" transform="translate(43.595502853393555,713.0500011444092)"><g class="node-item node-item-type" transform="translate(0,0)"><path d="M5,0h82.69400024414062a5,5 0 0 1 5,5v15.375a0,0 0 0 1 0,0h-92.69400024414062a0,0 0 0 1 0,0v-15.375a5,5 0 0 1 5,-5z" style="stroke: rgb(0, 0, 0); fill: rgb(0, 0, 0); stroke-width: 0px;"/><text x="6" y="14.28499984741211" style="font-family: -apple-system, BlinkMacSystemFont, &quot;Segoe WPC&quot;, &quot;Segoe UI&quot;, &quot;Ubuntu&quot;, &quot;Droid Sans&quot;, sans-serif, &quot;PingFang SC&quot;; font-size: 11px; text-rendering: geometricprecision; user-select: none; fill: rgb(255, 255, 255);">GreaterOrEqual</text><title>/GreaterOrEqual</title></g><g class="node-argument-list" transform="translate(0,20.375)"><path d="M0,0h92.69400024414062a0,0 0 0 1 0,0v13.125a5,5 0 0 1 -5,5h-82.69400024414062a5,5 0 0 1 -5,-5v-13.125a0,0 0 0 1 0,0z" style="stroke: rgb(0, 0, 0); fill: rgb(255, 255, 255); stroke-width: 0px;"/><g class="node-argument"><rect rx="3" ry="3" x="3" y="3" width="86.69400024414062" height="12.125" style="fill: transparent;"/><text xml:space="preserve" x="6" y="12.414999961853027" style="font-family: -apple-system, BlinkMacSystemFont, &quot;Segoe WPC&quot;, &quot;Segoe UI&quot;, &quot;Ubuntu&quot;, &quot;Droid Sans&quot;, sans-serif, &quot;PingFang SC&quot;; font-size: 9px; font-weight: normal; text-rendering: geometricprecision; user-select: none;"><title>float32</title><tspan>B</tspan><tspan> = 0.25</tspan></text></g><line class="node" x1="0" x2="92.69400024414062" y1="0" y2="0" style="stroke: rgb(51, 51, 51); fill: none; stroke-width: 1px;"/></g><path class="node node-border" d="M5,0h82.69400024414062a5,5 0 0 1 5,5v28.5a5,5 0 0 1 -5,5h-82.69400024414062a5,5 0 0 1 -5,-5v-28.5a5,5 0 0 1 5,-5z" style="stroke: rgb(51, 51, 51); fill: none; stroke-width: 1px;"/></g><g id="node-name-/NonZero" class="node graph-node" style="" transform="translate(61.03050231933594,792.8000011444092)"><g class="node-item node-item-type" transform="translate(0,0)"><path d="M5,0h47.82400131225586a5,5 0 0 1 5,5v10.375a5,5 0 0 1 -5,5h-47.82400131225586a5,5 0 0 1 -5,-5v-10.375a5,5 0 0 1 5,-5z" style="stroke: rgb(0, 0, 0); fill: rgb(0, 0, 0); stroke-width: 0px;"/><text x="6" y="14.28499984741211" style="font-family: -apple-system, BlinkMacSystemFont, &quot;Segoe WPC&quot;, &quot;Segoe UI&quot;, &quot;Ubuntu&quot;, &quot;Droid Sans&quot;, sans-serif, &quot;PingFang SC&quot;; font-size: 11px; text-rendering: geometricprecision; user-select: none; fill: rgb(255, 255, 255);">NonZero</text><title>/NonZero</title></g><path class="node node-border" d="M5,0h47.82400131225586a5,5 0 0 1 5,5v10.375a5,5 0 0 1 -5,5h-47.82400131225586a5,5 0 0 1 -5,-5v-10.375a5,5 0 0 1 5,-5z" style="stroke: rgb(51, 51, 51); fill: none; stroke-width: 1px;"/></g><g id="node-name-/Transpose" class="node graph-node" style="" transform="translate(57.439002990722656,854.4250011444092)"><g class="node-item node-item-type node-item-type-transform" transform="translate(0,0)"><path d="M5,0h55.00699996948242a5,5 0 0 1 5,5v10.375a5,5 0 0 1 -5,5h-55.00699996948242a5,5 0 0 1 -5,-5v-10.375a5,5 0 0 1 5,-5z" style="stroke: rgb(0, 0, 0); fill: rgb(51, 85, 68); stroke-width: 0px;"/><text x="6" y="14.28499984741211" style="font-family: -apple-system, BlinkMacSystemFont, &quot;Segoe WPC&quot;, &quot;Segoe UI&quot;, &quot;Ubuntu&quot;, &quot;Droid Sans&quot;, sans-serif, &quot;PingFang SC&quot;; font-size: 11px; text-rendering: geometricprecision; user-select: none; fill: rgb(255, 255, 255);">Transpose</text><title>/Transpose</title></g><path class="node node-border" d="M5,0h55.00699996948242a5,5 0 0 1 5,5v10.375a5,5 0 0 1 -5,5h-55.00699996948242a5,5 0 0 1 -5,-5v-10.375a5,5 0 0 1 5,-5z" style="stroke: rgb(51, 51, 51); fill: none; stroke-width: 1px;"/></g><g id="node-name-/GatherND" class="node graph-node" style="" transform="translate(91.07450294494629,916.0500011444092)"><g class="node-item node-item-type" transform="translate(0,0)"><path d="M5,0h54.08300018310547a5,5 0 0 1 5,5v10.375a5,5 0 0 1 -5,5h-54.08300018310547a5,5 0 0 1 -5,-5v-10.375a5,5 0 0 1 5,-5z" style="stroke: rgb(0, 0, 0); fill: rgb(0, 0, 0); stroke-width: 0px;"/><text x="6" y="14.28499984741211" style="font-family: -apple-system, BlinkMacSystemFont, &quot;Segoe WPC&quot;, &quot;Segoe UI&quot;, &quot;Ubuntu&quot;, &quot;Droid Sans&quot;, sans-serif, &quot;PingFang SC&quot;; font-size: 11px; text-rendering: geometricprecision; user-select: none; fill: rgb(255, 255, 255);">GatherND</text><title>/GatherND</title></g><path class="node node-border" d="M5,0h54.08300018310547a5,5 0 0 1 5,5v10.375a5,5 0 0 1 -5,5h-54.08300018310547a5,5 0 0 1 -5,-5v-10.375a5,5 0 0 1 5,-5z" style="stroke: rgb(51, 51, 51); fill: none; stroke-width: 1px;"/></g><g class="node" style="" transform="translate(70.98850440979004,956.4250011444092)"><g class="node-item graph-item-output" transform="translate(0,0)"><path d="M5,0h94.25499725341797a5,5 0 0 1 5,5v10.375a5,5 0 0 1 -5,5h-94.25499725341797a5,5 0 0 1 -5,-5v-10.375a5,5 0 0 1 5,-5z" style="stroke: rgb(0, 0, 0); fill: rgb(238, 238, 238); stroke-width: 0px;"/><text x="6" y="14.28499984741211" style="font-family: -apple-system, BlinkMacSystemFont, &quot;Segoe WPC&quot;, &quot;Segoe UI&quot;, &quot;Ubuntu&quot;, &quot;Droid Sans&quot;, sans-serif, &quot;PingFang SC&quot;; font-size: 11px; text-rendering: geometricprecision; user-select: none;">boxes_and_scores</text><title>float32[GatherNDboxes_and_scores_dim_0,5]</title></g><path class="node node-border" d="M5,0h94.25499725341797a5,5 0 0 1 5,5v10.375a5,5 0 0 1 -5,5h-94.25499725341797a5,5 0 0 1 -5,-5v-10.375a5,5 0 0 1 5,-5z" style="stroke: rgb(51, 51, 51); fill: none; stroke-width: 1px;"/></g></g></g></svg>