<svg xmlns="http://www.w3.org/2000/svg" id="export" class="canvas" preserveAspectRatio="xMidYMid meet" style="" width="242" height="476"><rect id="background" fill="#fff" pointer-events="all" style="" width="242" height="476"/><g id="origin" transform="translate(10.974803924560547, 10.974800109863281) scale(1)"><g id="clusters" class="clusters"/><g id="edge-paths" class="edge-paths" style="pointer-events: none;"><defs><marker id="arrowhead" viewBox="0 0 10 10" refX="9" refY="5" markerUnits="strokeWidth" markerWidth="8" markerHeight="6" orient="auto" style="fill: rgb(0, 0, 0);"><path d="M 0 0 L 10 5 L 0 10 L 4 5 z" style="stroke-width: 1px;"/></marker><marker id="arrowhead-select" viewBox="0 0 10 10" refX="9" refY="5" markerUnits="strokeWidth" markerWidth="8" markerHeight="6" orient="auto" style="fill: rgba(220, 0, 0, 0.9);"><path d="M 0 0 L 10 5 L 0 10 L 4 5 z" style="stroke-width: 1px;"/></marker><marker id="arrowhead-hover" viewBox="0 0 10 10" refX="9" refY="5" markerUnits="strokeWidth" markerWidth="8" markerHeight="6" orient="auto" style="fill: rgba(220, 0, 0, 0.9);"><path d="M 0 0 L 10 5 L 0 10 L 4 5 z" style="stroke-width: 1px;"/></marker></defs><path id="edge-rtdetr_raw_out_in" class="edge-path" d="M111.55175304412842,20.375L111.55175304412842,22.041666666666668C111.55175304412842,23.708333333333332,111.55175304412842,27.041666666666668,111.55175304412842,32.145833333333336C111.55175304412842,37.25,111.55175304412842,44.125,111.55175304412842,51C111.55175304412842,57.875,111.55175304412842,64.75,111.55175304412842,69.85416666666667C111.55175304412842,74.95833333333333,111.55175304412842,78.29166666666667,111.55175304412842,79.95833333333333L111.55175304412842,81.625" style="stroke: rgb(0, 0, 0); stroke-width: 1px; fill: none; marker-end: url(&quot;#arrowhead&quot;);"/><path id="edge-/Squeeze_output_0" class="edge-path" d="M144.23441262770226,123.05000019073486L149.65851120591603,126.48750019073486C155.0826097841298,129.92500019073486,165.93080694055732,136.80000019073486,171.35490551877106,143.67500019073486C176.77900409698486,150.55000019073486,176.77900409698486,157.42500019073486,176.77900409698486,160.86250019073486L176.77900409698486,164.30000019073486" style="stroke: rgb(0, 0, 0); stroke-width: 1px; fill: none; marker-end: url(&quot;#arrowhead&quot;);"/><path id="edge-/Squeeze_output_0" class="edge-path" d="M87.75148083946722,123.05000019073486L83.80152620691075,126.48750019073486C79.85157157435428,129.92500019073486,71.95166230924134,136.80000019073486,68.00170767668489,147.68125025431314C64.05175304412842,158.56250031789145,64.05175304412842,173.450000445048,64.05175304412842,180.8937505086263L64.05175304412842,188.3375005722046" style="stroke: rgb(0, 0, 0); stroke-width: 1px; fill: none; marker-end: url(&quot;#arrowhead&quot;);"/><path id="edge-/Slice_output_0" class="edge-path" d="M176.77900409698486,250.87500095367432L176.77900409698486,254.31250095367432C176.77900409698486,257.7500009536743,176.77900409698486,264.6250009536743,176.77900409698486,271.5000009536743C176.77900409698486,278.3750009536743,176.77900409698486,285.2500009536743,176.77900409698486,288.6875009536743L176.77900409698486,292.1250009536743" style="stroke: rgb(0, 0, 0); stroke-width: 1px; fill: none; marker-end: url(&quot;#arrowhead&quot;);"/><path id="edge-rtdetr_cxcywh" class="edge-path" d="M176.77900409698486,330.6250009536743L176.77900409698486,334.0625009536743C176.77900409698486,337.5000009536743,176.77900409698486,344.3750009536743,176.77900409698486,351.2500009536743C176.77900409698486,358.1250009536743,176.77900409698486,365.0000009536743,176.77900409698486,368.4375009536743L176.77900409698486,371.8750009536743" style="stroke: rgb(0, 0, 0); stroke-width: 1px; fill: none; marker-end: url(&quot;#arrowhead&quot;);"/><path id="edge-/Gather_output_0" class="edge-path" d="M55.61315216301617,226.8375005722046L52.350043807416625,234.28125063578287C49.08693545181709,241.72500069936117,42.56071874061802,256.61250082651776,39.29761038501848,269.0041675567627C36.034502029418945,281.39583428700763,36.034502029418945,291.291667620341,36.034502029418945,296.23958428700763L36.034502029418945,301.1875009536743" style="stroke: rgb(0, 0, 0); stroke-width: 1px; fill: none; marker-end: url(&quot;#arrowhead&quot;);"/><path id="edge-/Gather_output_0" class="edge-path" d="M72.49035392524067,226.8375005722046L75.75346228084021,234.28125063578287C79.01657063643974,241.72500069936117,85.54278734763882,256.61250082651776,88.80589570323836,270.7020842234294C92.06900405883789,284.791667620341,92.06900405883789,298.08333428700763,92.06900405883789,311.3750009536743C92.06900405883789,324.666667620341,92.06900405883789,337.95833428700763,88.94334725192304,348.041667620341C85.81769044500818,358.1250009536743,79.56637683117849,365.0000009536743,76.44072002426364,368.4375009536743L73.3150632173488,371.8750009536743" style="stroke: rgb(0, 0, 0); stroke-width: 1px; fill: none; marker-end: url(&quot;#arrowhead&quot;);"/><path id="edge-/ReduceMax_output_0" class="edge-path" d="M36.034502029418945,321.5625009536743L36.034502029418945,326.510417620341C36.034502029418945,331.45833428700763,36.034502029418945,341.354167620341,39.1601588363338,349.73958428700763C42.28581564324865,358.1250009536743,48.53712925707834,365.0000009536743,51.662786063993195,368.4375009536743L54.78844287090804,371.8750009536743" style="stroke: rgb(0, 0, 0); stroke-width: 1px; fill: none; marker-end: url(&quot;#arrowhead&quot;);"/><path id="edge-rtdetr_conf" class="edge-path" d="M64.05175304412842,392.2500009536743L64.05175304412842,395.6875009536743C64.05175304412842,399.1250009536743,64.05175304412842,406.0000009536743,64.05175304412842,412.8750009536743C64.05175304412842,419.7500009536743,64.05175304412842,426.6250009536743,64.05175304412842,430.0625009536743L64.05175304412842,433.5000009536743" style="stroke: rgb(0, 0, 0); stroke-width: 1px; fill: none; marker-end: url(&quot;#arrowhead&quot;);"/></g><g id="edge-labels" class="edge-labels"><text style="opacity: 1; font-family: -apple-system, BlinkMacSystemFont, &quot;Segoe WPC&quot;, &quot;Segoe UI&quot;, &quot;Ubuntu&quot;, &quot;Droid Sans&quot;, sans-serif, &quot;PingFang SC&quot;; font-size: 10px;" class="edge-label" id="edge-label-edge-rtdetr_raw_out_in" transform="translate(116.55175304412842,45.375)"><tspan xml:space="preserve" dy="1em" x="1">1×300×84</tspan></text><text style="opacity: 1; font-family: -apple-system, BlinkMacSystemFont, &quot;Segoe WPC&quot;, &quot;Segoe UI&quot;, &quot;Ubuntu&quot;, &quot;Droid Sans&quot;, sans-serif, &quot;PingFang SC&quot;; font-size: 10px;" class="edge-label" id="edge-label-edge-/Squeeze_output_0" transform="translate(181.77900409698486,138.05000019073486)"><tspan xml:space="preserve" dy="1em" x="1">300×84</tspan></text><text style="opacity: 1; font-family: -apple-system, BlinkMacSystemFont, &quot;Segoe WPC&quot;, &quot;Segoe UI&quot;, &quot;Ubuntu&quot;, &quot;Droid Sans&quot;, sans-serif, &quot;PingFang SC&quot;; font-size: 10px;" class="edge-label" id="edge-label-edge-/Squeeze_output_0" transform="translate(69.05175304412842,138.05000019073486)"><tspan xml:space="preserve" dy="1em" x="1">300×84</tspan></text><text style="opacity: 1; font-family: -apple-system, BlinkMacSystemFont, &quot;Segoe WPC&quot;, &quot;Segoe UI&quot;, &quot;Ubuntu&quot;, &quot;Droid Sans&quot;, sans-serif, &quot;PingFang SC&quot;; font-size: 10px;" class="edge-label" id="edge-label-edge-/Slice_output_0" transform="translate(181.77900409698486,265.8750009536743)"><tspan xml:space="preserve" dy="1em" x="1">300×4</tspan></text><text style="opacity: 1; font-family: -apple-system, BlinkMacSystemFont, &quot;Segoe WPC&quot;, &quot;Segoe UI&quot;, &quot;Ubuntu&quot;, &quot;Droid Sans&quot;, sans-serif, &quot;PingFang SC&quot;; font-size: 10px;" class="edge-label" id="edge-label-edge-rtdetr_cxcywh" transform="translate(181.77900409698486,345.6250009536743)"><tspan xml:space="preserve" dy="1em" x="1">300×4</tspan></text><text style="opacity: 1; font-family: -apple-system, BlinkMacSystemFont, &quot;Segoe WPC&quot;, &quot;Segoe UI&quot;, &quot;Ubuntu&quot;, &quot;Droid Sans&quot;, sans-serif, &quot;PingFang SC&quot;; font-size: 10px;" class="edge-label" id="edge-label-edge-/Gather_output_0" transform="translate(41.034502029418945,265.8750009536743)"><tspan xml:space="preserve" dy="1em" x="1">300</tspan></text><text style="opacity: 1; font-family: -apple-system, BlinkMacSystemFont, &quot;Segoe WPC&quot;, &quot;Segoe UI&quot;, &quot;Ubuntu&quot;, &quot;Droid Sans&quot;, sans-serif, &quot;PingFang SC&quot;; font-size: 10px;" class="edge-label" id="edge-label-edge-/Gather_output_0" transform="translate(97.06900405883789,305.7500009536743)"><tspan xml:space="preserve" dy="1em" x="1">300</tspan></text><text style="opacity: 1; font-family: -apple-system, BlinkMacSystemFont, &quot;Segoe WPC&quot;, &quot;Segoe UI&quot;, &quot;Ubuntu&quot;, &quot;Droid Sans&quot;, sans-serif, &quot;PingFang SC&quot;; font-size: 10px;" class="edge-label" id="edge-label-edge-rtdetr_conf" transform="translate(69.05175304412842,407.2500009536743)"><tspan xml:space="preserve" dy="1em" x="1">300</tspan></text></g><g id="nodes" class="nodes"><g id="input-name-rtdetr_raw_out_in" class="node graph-input" style="" transform="translate(59.165751457214355,0)"><g class="node-item graph-item-input" transform="translate(0,0)"><path d="M5,0h94.77200317382812a5,5 0 0 1 5,5v10.375a5,5 0 0 1 -5,5h-94.77200317382812a5,5 0 0 1 -5,-5v-10.375a5,5 0 0 1 5,-5z" style="stroke: rgb(0, 0, 0); fill: rgb(238, 238, 238); stroke-width: 0px;"/><text x="6" y="14.28499984741211" style="font-family: -apple-system, BlinkMacSystemFont, &quot;Segoe WPC&quot;, &quot;Segoe UI&quot;, &quot;Ubuntu&quot;, &quot;Droid Sans&quot;, sans-serif, &quot;PingFang SC&quot;; font-size: 11px; text-rendering: geometricprecision; user-select: none;">rtdetr_raw_out_in</text><title>float32[1,300,84]</title></g><path class="node node-border" d="M5,0h94.77200317382812a5,5 0 0 1 5,5v10.375a5,5 0 0 1 -5,5h-94.77200317382812a5,5 0 0 1 -5,-5v-10.375a5,5 0 0 1 5,-5z" style="stroke: rgb(51, 51, 51); fill: none; stroke-width: 1px;"/></g><g id="node-name-/Squeeze" class="node graph-node" style="" transform="translate(74.05175304412842,81.625)"><g class="node-item node-item-type node-item-type-transform" transform="translate(0,0)"><path d="M5,0h65a5,5 0 0 1 5,5v15.375a0,0 0 0 1 0,0h-75a0,0 0 0 1 0,0v-15.375a5,5 0 0 1 5,-5z" style="stroke: rgb(0, 0, 0); fill: rgb(51, 85, 68); stroke-width: 0px;"/><text x="6" y="14.28499984741211" style="font-family: -apple-system, BlinkMacSystemFont, &quot;Segoe WPC&quot;, &quot;Segoe UI&quot;, &quot;Ubuntu&quot;, &quot;Droid Sans&quot;, sans-serif, &quot;PingFang SC&quot;; font-size: 11px; text-rendering: geometricprecision; user-select: none; fill: rgb(255, 255, 255);">Squeeze</text><title>/Squeeze</title></g><g class="node-argument-list" transform="translate(0,20.375)"><path d="M0,0h75a0,0 0 0 1 0,0v16.050000190734863a5,5 0 0 1 -5,5h-65a5,5 0 0 1 -5,-5v-16.050000190734863a0,0 0 0 1 0,0z" style="stroke: rgb(0, 0, 0); fill: rgb(255, 255, 255); stroke-width: 0px;"/><g class="node-argument"><rect rx="3" ry="3" x="3" y="3" width="69" height="15.050000190734863" style="fill: transparent;"/><text xml:space="preserve" x="6" y="14.440000534057617" style="font-family: -apple-system, BlinkMacSystemFont, &quot;Segoe WPC&quot;, &quot;Segoe UI&quot;, &quot;Ubuntu&quot;, &quot;Droid Sans&quot;, sans-serif, &quot;PingFang SC&quot;; font-size: 9px; font-weight: normal; text-rendering: geometricprecision; user-select: none;"><title>int64[1]</title><tspan style="font-weight: bold;">axes</tspan><tspan>〈1〉</tspan></text></g><line class="node" x1="0" x2="75" y1="0" y2="0" style="stroke: rgb(51, 51, 51); fill: none; stroke-width: 1px;"/></g><path class="node node-border" d="M5,0h65a5,5 0 0 1 5,5v31.425000190734863a5,5 0 0 1 -5,5h-65a5,5 0 0 1 -5,-5v-31.425000190734863a5,5 0 0 1 5,-5z" style="stroke: rgb(51, 51, 51); fill: none; stroke-width: 1px;"/></g><g id="node-name-/Slice" class="node graph-node" style="" transform="translate(139.27900409698486,164.30000019073486)"><g class="node-item node-item-type node-item-type-tensor" transform="translate(0,0)"><path d="M5,0h65a5,5 0 0 1 5,5v15.375a0,0 0 0 1 0,0h-75a0,0 0 0 1 0,0v-15.375a5,5 0 0 1 5,-5z" style="stroke: rgb(0, 0, 0); fill: rgb(89, 66, 59); stroke-width: 0px;"/><text x="6" y="14.28499984741211" style="font-family: -apple-system, BlinkMacSystemFont, &quot;Segoe WPC&quot;, &quot;Segoe UI&quot;, &quot;Ubuntu&quot;, &quot;Droid Sans&quot;, sans-serif, &quot;PingFang SC&quot;; font-size: 11px; text-rendering: geometricprecision; user-select: none; fill: rgb(255, 255, 255);">Slice</text><title>/Slice</title></g><g class="node-argument-list" transform="translate(0,20.375)"><path d="M0,0h75a0,0 0 0 1 0,0v61.20000076293945a5,5 0 0 1 -5,5h-65a5,5 0 0 1 -5,-5v-61.20000076293945a0,0 0 0 1 0,0z" style="stroke: rgb(0, 0, 0); fill: rgb(255, 255, 255); stroke-width: 0px;"/><g class="node-argument"><rect rx="3" ry="3" x="3" y="3" width="69" height="15.050000190734863" style="fill: transparent;"/><text xml:space="preserve" x="6" y="14.440000534057617" style="font-family: -apple-system, BlinkMacSystemFont, &quot;Segoe WPC&quot;, &quot;Segoe UI&quot;, &quot;Ubuntu&quot;, &quot;Droid Sans&quot;, sans-serif, &quot;PingFang SC&quot;; font-size: 9px; font-weight: normal; text-rendering: geometricprecision; user-select: none;"><title>int64[1]</title><tspan style="font-weight: bold;">starts</tspan><tspan>〈1〉</tspan></text></g><g class="node-argument"><rect rx="3" ry="3" x="3" y="18.050000190734863" width="69" height="15.050000190734863" style="fill: transparent;"/><text xml:space="preserve" x="6" y="29.49000072479248" style="font-family: -apple-system, BlinkMacSystemFont, &quot;Segoe WPC&quot;, &quot;Segoe UI&quot;, &quot;Ubuntu&quot;, &quot;Droid Sans&quot;, sans-serif, &quot;PingFang SC&quot;; font-size: 9px; font-weight: normal; text-rendering: geometricprecision; user-select: none;"><title>int64[1]</title><tspan style="font-weight: bold;">ends</tspan><tspan>〈1〉</tspan></text></g><g class="node-argument"><rect rx="3" ry="3" x="3" y="33.10000038146973" width="69" height="15.050000190734863" style="fill: transparent;"/><text xml:space="preserve" x="6" y="44.540000915527344" style="font-family: -apple-system, BlinkMacSystemFont, &quot;Segoe WPC&quot;, &quot;Segoe UI&quot;, &quot;Ubuntu&quot;, &quot;Droid Sans&quot;, sans-serif, &quot;PingFang SC&quot;; font-size: 9px; font-weight: normal; text-rendering: geometricprecision; user-select: none;"><title>int64[1]</title><tspan style="font-weight: bold;">axes</tspan><tspan>〈1〉</tspan></text></g><g class="node-argument"><rect rx="3" ry="3" x="3" y="48.15000057220459" width="69" height="15.050000190734863" style="fill: transparent;"/><text xml:space="preserve" x="6" y="59.59000110626221" style="font-family: -apple-system, BlinkMacSystemFont, &quot;Segoe WPC&quot;, &quot;Segoe UI&quot;, &quot;Ubuntu&quot;, &quot;Droid Sans&quot;, sans-serif, &quot;PingFang SC&quot;; font-size: 9px; font-weight: normal; text-rendering: geometricprecision; user-select: none;"><title>int64[1]</title><tspan style="font-weight: bold;">steps</tspan><tspan>〈1〉</tspan></text></g><line class="node" x1="0" x2="75" y1="0" y2="0" style="stroke: rgb(51, 51, 51); fill: none; stroke-width: 1px;"/></g><path class="node node-border" d="M5,0h65a5,5 0 0 1 5,5v76.57500076293945a5,5 0 0 1 -5,5h-65a5,5 0 0 1 -5,-5v-76.57500076293945a5,5 0 0 1 5,-5z" style="stroke: rgb(51, 51, 51); fill: none; stroke-width: 1px;"/></g><g id="node-name-/Mul" class="node graph-node" style="" transform="translate(139.27900409698486,292.1250009536743)"><g class="node-item node-item-type" transform="translate(0,0)"><path d="M5,0h65a5,5 0 0 1 5,5v15.375a0,0 0 0 1 0,0h-75a0,0 0 0 1 0,0v-15.375a5,5 0 0 1 5,-5z" style="stroke: rgb(0, 0, 0); fill: rgb(0, 0, 0); stroke-width: 0px;"/><text x="6" y="14.28499984741211" style="font-family: -apple-system, BlinkMacSystemFont, &quot;Segoe WPC&quot;, &quot;Segoe UI&quot;, &quot;Ubuntu&quot;, &quot;Droid Sans&quot;, sans-serif, &quot;PingFang SC&quot;; font-size: 11px; text-rendering: geometricprecision; user-select: none; fill: rgb(255, 255, 255);">Mul</text><title>/Mul</title></g><g class="node-argument-list" transform="translate(0,20.375)"><path d="M0,0h75a0,0 0 0 1 0,0v13.125a5,5 0 0 1 -5,5h-65a5,5 0 0 1 -5,-5v-13.125a0,0 0 0 1 0,0z" style="stroke: rgb(0, 0, 0); fill: rgb(255, 255, 255); stroke-width: 0px;"/><g class="node-argument"><rect rx="3" ry="3" x="3" y="3" width="69" height="12.125" style="fill: transparent;"/><text xml:space="preserve" x="6" y="12.414999961853027" style="font-family: -apple-system, BlinkMacSystemFont, &quot;Segoe WPC&quot;, &quot;Segoe UI&quot;, &quot;Ubuntu&quot;, &quot;Droid Sans&quot;, sans-serif, &quot;PingFang SC&quot;; font-size: 9px; font-weight: normal; text-rendering: geometricprecision; user-select: none;"><title>float32</title><tspan>B</tspan><tspan> = 640</tspan></text></g><line class="node" x1="0" x2="75" y1="0" y2="0" style="stroke: rgb(51, 51, 51); fill: none; stroke-width: 1px;"/></g><path class="node node-border" d="M5,0h65a5,5 0 0 1 5,5v28.5a5,5 0 0 1 -5,5h-65a5,5 0 0 1 -5,-5v-28.5a5,5 0 0 1 5,-5z" style="stroke: rgb(51, 51, 51); fill: none; stroke-width: 1px;"/></g><g id="node-name-/Gather" class="node graph-node" style="" transform="translate(26.551753044128418,188.3375005722046)"><g class="node-item node-item-type node-item-type-transform" transform="translate(0,0)"><path d="M5,0h65a5,5 0 0 1 5,5v15.375a0,0 0 0 1 0,0h-75a0,0 0 0 1 0,0v-15.375a5,5 0 0 1 5,-5z" style="stroke: rgb(0, 0, 0); fill: rgb(51, 85, 68); stroke-width: 0px;"/><text x="6" y="14.28499984741211" style="font-family: -apple-system, BlinkMacSystemFont, &quot;Segoe WPC&quot;, &quot;Segoe UI&quot;, &quot;Ubuntu&quot;, &quot;Droid Sans&quot;, sans-serif, &quot;PingFang SC&quot;; font-size: 11px; text-rendering: geometricprecision; user-select: none; fill: rgb(255, 255, 255);">Gather</text><title>/Gather</title></g><g class="node-argument-list" transform="translate(0,20.375)"><path d="M0,0h75a0,0 0 0 1 0,0v13.125a5,5 0 0 1 -5,5h-65a5,5 0 0 1 -5,-5v-13.125a0,0 0 0 1 0,0z" style="stroke: rgb(0, 0, 0); fill: rgb(255, 255, 255); stroke-width: 0px;"/><g class="node-argument"><rect rx="3" ry="3" x="3" y="3" width="69" height="12.125" style="fill: transparent;"/><text xml:space="preserve" x="6" y="12.414999961853027" style="font-family: -apple-system, BlinkMacSystemFont, &quot;Segoe WPC&quot;, &quot;Segoe UI&quot;, &quot;Ubuntu&quot;, &quot;Droid Sans&quot;, sans-serif, &quot;PingFang SC&quot;; font-size: 9px; font-weight: normal; text-rendering: geometricprecision; user-select: none;"><title>int64</title><tspan>indices</tspan><tspan> = 4</tspan></text></g><line class="node" x1="0" x2="75" y1="0" y2="0" style="stroke: rgb(51, 51, 51); fill: none; stroke-width: 1px;"/></g><path class="node node-border" d="M5,0h65a5,5 0 0 1 5,5v28.5a5,5 0 0 1 -5,5h-65a5,5 0 0 1 -5,-5v-28.5a5,5 0 0 1 5,-5z" style="stroke: rgb(51, 51, 51); fill: none; stroke-width: 1px;"/></g><g id="node-name-/ReduceMax" class="node graph-node" style="" transform="translate(0,301.1875009536743)"><g class="node-item node-item-type" transform="translate(0,0)"><path d="M5,0h62.06900405883789a5,5 0 0 1 5,5v10.375a5,5 0 0 1 -5,5h-62.06900405883789a5,5 0 0 1 -5,-5v-10.375a5,5 0 0 1 5,-5z" style="stroke: rgb(0, 0, 0); fill: rgb(0, 0, 0); stroke-width: 0px;"/><text x="6" y="14.28499984741211" style="font-family: -apple-system, BlinkMacSystemFont, &quot;Segoe WPC&quot;, &quot;Segoe UI&quot;, &quot;Ubuntu&quot;, &quot;Droid Sans&quot;, sans-serif, &quot;PingFang SC&quot;; font-size: 11px; text-rendering: geometricprecision; user-select: none; fill: rgb(255, 255, 255);">ReduceMax</text><title>/ReduceMax</title></g><path class="node node-border" d="M5,0h62.06900405883789a5,5 0 0 1 5,5v10.375a5,5 0 0 1 -5,5h-62.06900405883789a5,5 0 0 1 -5,-5v-10.375a5,5 0 0 1 5,-5z" style="stroke: rgb(51, 51, 51); fill: none; stroke-width: 1px;"/></g><g id="node-name-/Div" class="node graph-node" style="" transform="translate(48.977752685546875,371.8750009536743)"><g class="node-item node-item-type" transform="translate(0,0)"><path d="M5,0h20.148000717163086a5,5 0 0 1 5,5v10.375a5,5 0 0 1 -5,5h-20.148000717163086a5,5 0 0 1 -5,-5v-10.375a5,5 0 0 1 5,-5z" style="stroke: rgb(0, 0, 0); fill: rgb(0, 0, 0); stroke-width: 0px;"/><text x="6" y="14.28499984741211" style="font-family: -apple-system, BlinkMacSystemFont, &quot;Segoe WPC&quot;, &quot;Segoe UI&quot;, &quot;Ubuntu&quot;, &quot;Droid Sans&quot;, sans-serif, &quot;PingFang SC&quot;; font-size: 11px; text-rendering: geometricprecision; user-select: none; fill: rgb(255, 255, 255);">Div</text><title>/Div</title></g><path class="node node-border" d="M5,0h20.148000717163086a5,5 0 0 1 5,5v10.375a5,5 0 0 1 -5,5h-20.148000717163086a5,5 0 0 1 -5,-5v-10.375a5,5 0 0 1 5,-5z" style="stroke: rgb(51, 51, 51); fill: none; stroke-width: 1px;"/></g><g class="node" style="" transform="translate(134.06200122833252,371.8750009536743)"><g class="node-item graph-item-output" transform="translate(0,0)"><path d="M5,0h75.43400573730469a5,5 0 0 1 5,5v10.375a5,5 0 0 1 -5,5h-75.43400573730469a5,5 0 0 1 -5,-5v-10.375a5,5 0 0 1 5,-5z" style="stroke: rgb(0, 0, 0); fill: rgb(238, 238, 238); stroke-width: 0px;"/><text x="6" y="14.28499984741211" style="font-family: -apple-system, BlinkMacSystemFont, &quot;Segoe WPC&quot;, &quot;Segoe UI&quot;, &quot;Ubuntu&quot;, &quot;Droid Sans&quot;, sans-serif, &quot;PingFang SC&quot;; font-size: 11px; text-rendering: geometricprecision; user-select: none;">rtdetr_cxcywh</text><title>float32[300,4]</title></g><path class="node node-border" d="M5,0h75.43400573730469a5,5 0 0 1 5,5v10.375a5,5 0 0 1 -5,5h-75.43400573730469a5,5 0 0 1 -5,-5v-10.375a5,5 0 0 1 5,-5z" style="stroke: rgb(51, 51, 51); fill: none; stroke-width: 1px;"/></g><g class="node" style="" transform="translate(28.3307523727417,433.5000009536743)"><g class="node-item graph-item-output" transform="translate(0,0)"><path d="M5,0h61.44200134277344a5,5 0 0 1 5,5v10.375a5,5 0 0 1 -5,5h-61.44200134277344a5,5 0 0 1 -5,-5v-10.375a5,5 0 0 1 5,-5z" style="stroke: rgb(0, 0, 0); fill: rgb(238, 238, 238); stroke-width: 0px;"/><text x="6" y="14.28499984741211" style="font-family: -apple-system, BlinkMacSystemFont, &quot;Segoe WPC&quot;, &quot;Segoe UI&quot;, &quot;Ubuntu&quot;, &quot;Droid Sans&quot;, sans-serif, &quot;PingFang SC&quot;; font-size: 11px; text-rendering: geometricprecision; user-select: none;">rtdetr_conf</text><title>float32[300]</title></g><path class="node node-border" d="M5,0h61.44200134277344a5,5 0 0 1 5,5v10.375a5,5 0 0 1 -5,5h-61.44200134277344a5,5 0 0 1 -5,-5v-10.375a5,5 0 0 1 5,-5z" style="stroke: rgb(51, 51, 51); fill: none; stroke-width: 1px;"/></g></g></g></svg>