<svg xmlns="http://www.w3.org/2000/svg" id="export" class="canvas" preserveAspectRatio="xMidYMid meet" style="" width="240" height="499"><rect id="background" fill="#fff" pointer-events="all" width="240" height="499"/><g id="origin" transform="translate(10.895862579345703, 10.895862579345703) scale(1)"><g id="clusters" class="clusters"/><g id="edge-paths" class="edge-paths" style="pointer-events: none;"><defs><marker id="arrowhead" viewBox="0 0 10 10" refX="9" refY="5" markerUnits="strokeWidth" markerWidth="8" markerHeight="6" orient="auto" style="fill: rgb(0, 0, 0);"><path d="M 0 0 L 10 5 L 0 10 L 4 5 z" style="stroke-width: 1px;"/></marker><marker id="arrowhead-select" viewBox="0 0 10 10" refX="9" refY="5" markerUnits="strokeWidth" markerWidth="8" markerHeight="6" orient="auto" style="fill: rgba(220, 0, 0, 0.9);"><path d="M 0 0 L 10 5 L 0 10 L 4 5 z" style="stroke-width: 1px;"/></marker><marker id="arrowhead-hover" viewBox="0 0 10 10" refX="9" refY="5" markerUnits="strokeWidth" markerWidth="8" markerHeight="6" orient="auto" style="fill: rgba(220, 0, 0, 0.9);"><path d="M 0 0 L 10 5 L 0 10 L 4 5 z" style="stroke-width: 1px;"/></marker></defs><path id="edge-yolo_raw_out_in" class="edge-path" d="M113.84000587463379,20.375L113.84000587463379,22.041666666666668C113.84000587463379,23.708333333333332,113.84000587463379,27.041666666666668,113.84000587463379,32.145833333333336C113.84000587463379,37.25,113.84000587463379,44.125,113.84000587463379,51C113.84000587463379,57.875,113.84000587463379,64.75,113.84000587463379,69.85416666666667C113.84000587463379,74.95833333333333,113.84000587463379,78.29166666666667,113.84000587463379,79.95833333333333L113.84000587463379,81.625" style="stroke: rgb(0, 0, 0); stroke-width: 1px; fill: none; marker-end: url(&quot;#arrowhead&quot;);"/><path id="edge-/Transpose_output_0" class="edge-path" d="M113.84000587463379,102L113.84000587463379,105.4375C113.84000587463379,108.875,113.84000587463379,115.75,113.84000587463379,122.625C113.84000587463379,129.5,113.84000587463379,136.375,113.84000587463379,139.8125L113.84000587463379,143.25" style="stroke: rgb(0, 0, 0); stroke-width: 1px; fill: none; marker-end: url(&quot;#arrowhead&quot;);"/><path id="edge-/Squeeze_output_0" class="edge-path" d="M76.34000587463379,184.54808347735985L70.03950532277425,188.00673626292235C63.73900477091471,191.46538904848487,51.13800366719564,198.38269461960985,44.8375031153361,205.27884740517234C38.53700256347656,212.17500019073486,38.53700256347656,219.05000019073486,38.53700256347656,222.48750019073486L38.53700256347656,225.92500019073486" style="stroke: rgb(0, 0, 0); stroke-width: 1px; fill: none; marker-end: url(&quot;#arrowhead&quot;);"/><path id="edge-/Squeeze_output_0" class="edge-path" d="M137.64027807929497,184.67500019073486L141.59023271185143,188.11250019073486C145.5401873444079,191.55000019073486,153.44009660952085,198.42500019073486,157.3900512420773,209.30625025431314C161.3400058746338,220.18750031789145,161.3400058746338,235.075000445048,161.3400058746338,242.5187505086263L161.3400058746338,249.9625005722046" style="stroke: rgb(0, 0, 0); stroke-width: 1px; fill: none; marker-end: url(&quot;#arrowhead&quot;);"/><path id="edge-yolo_cxcywh" class="edge-path" d="M38.53700256347656,312.5000009536743L38.53700256347656,315.9375009536743C38.53700256347656,319.3750009536743,38.53700256347656,326.2500009536743,38.53700256347656,333.197917620341C38.53700256347656,340.14583428700763,38.53700256347656,347.166667620341,38.53700256347656,350.67708428700763L38.53700256347656,354.1875009536743" style="stroke: rgb(0, 0, 0); stroke-width: 1px; fill: none; marker-end: url(&quot;#arrowhead&quot;);"/><path id="edge-/Gather_output_0" class="edge-path" d="M152.90140499352154,288.4625005722046L149.638296637922,295.9062506357829C146.37518828232245,303.35000069936115,139.84897157112337,318.23750082651776,136.58586321552386,329.1916675567627C133.32275485992432,340.14583428700763,133.32275485992432,347.166667620341,133.32275485992432,350.67708428700763L133.32275485992432,354.1875009536743" style="stroke: rgb(0, 0, 0); stroke-width: 1px; fill: none; marker-end: url(&quot;#arrowhead&quot;);"/><path id="edge-/Gather_output_0" class="edge-path" d="M169.77860675574604,288.4625005722046L173.04171511134555,295.9062506357829C176.30482346694512,303.35000069936115,182.8310401781442,318.23750082651776,186.09414853374372,330.8895842234294C189.35725688934326,343.541667620341,189.35725688934326,353.95833428700763,189.35725688934326,362.604167620341C189.35725688934326,371.2500009536743,189.35725688934326,378.1250009536743,187.04417115025475,383.229167620341C184.73108541116628,388.33333428700763,180.10491393298926,391.666667620341,177.79182819390076,393.33333428700763L175.47874245481225,395.0000009536743" style="stroke: rgb(0, 0, 0); stroke-width: 1px; fill: none; marker-end: url(&quot;#arrowhead&quot;);"/><path id="edge-/ReduceMax_output_0" class="edge-path" d="M133.32275485992432,374.5625009536743L133.32275485992432,376.30208428700763C133.32275485992432,378.041667620341,133.32275485992432,381.52083428700763,135.63584059901282,384.92708428700763C137.9489263381013,388.33333428700763,142.57509781627832,391.666667620341,144.88818355536682,393.33333428700763L147.20126929445533,395.0000009536743" style="stroke: rgb(0, 0, 0); stroke-width: 1px; fill: none; marker-end: url(&quot;#arrowhead&quot;);"/><path id="edge-yolo_conf" class="edge-path" d="M161.3400058746338,415.3750009536743L161.3400058746338,418.8125009536743C161.3400058746338,422.2500009536743,161.3400058746338,429.1250009536743,161.3400058746338,436.0000009536743C161.3400058746338,442.8750009536743,161.3400058746338,449.7500009536743,161.3400058746338,453.1875009536743L161.3400058746338,456.6250009536743" style="stroke: rgb(0, 0, 0); stroke-width: 1px; fill: none; marker-end: url(&quot;#arrowhead&quot;);"/></g><g id="edge-labels" class="edge-labels"><text style="opacity: 1; font-family: -apple-system, BlinkMacSystemFont, &quot;Segoe WPC&quot;, &quot;Segoe UI&quot;, &quot;Ubuntu&quot;, &quot;Droid Sans&quot;, sans-serif, &quot;PingFang SC&quot;; font-size: 10px;" class="edge-label" id="edge-label-edge-yolo_raw_out_in" transform="translate(118.84000587463379,45.375)"><tspan xml:space="preserve" dy="1em" x="1">1×84×8400</tspan></text><text style="opacity: 1; font-family: -apple-system, BlinkMacSystemFont, &quot;Segoe WPC&quot;, &quot;Segoe UI&quot;, &quot;Ubuntu&quot;, &quot;Droid Sans&quot;, sans-serif, &quot;PingFang SC&quot;; font-size: 10px;" class="edge-label" id="edge-label-edge-/Transpose_output_0" transform="translate(118.84000587463379,117)"><tspan xml:space="preserve" dy="1em" x="1">1×8400×84</tspan></text><text style="opacity: 1; font-family: -apple-system, BlinkMacSystemFont, &quot;Segoe WPC&quot;, &quot;Segoe UI&quot;, &quot;Ubuntu&quot;, &quot;Droid Sans&quot;, sans-serif, &quot;PingFang SC&quot;; font-size: 10px;" class="edge-label" id="edge-label-edge-/Squeeze_output_0" transform="translate(43.53700256347656,199.67500019073486)"><tspan xml:space="preserve" dy="1em" x="1">8400×84</tspan></text><text style="opacity: 1; font-family: -apple-system, BlinkMacSystemFont, &quot;Segoe WPC&quot;, &quot;Segoe UI&quot;, &quot;Ubuntu&quot;, &quot;Droid Sans&quot;, sans-serif, &quot;PingFang SC&quot;; font-size: 10px;" class="edge-label" id="edge-label-edge-/Squeeze_output_0" transform="translate(166.3400058746338,199.67500019073486)"><tspan xml:space="preserve" dy="1em" x="1">8400×84</tspan></text><text style="opacity: 1; font-family: -apple-system, BlinkMacSystemFont, &quot;Segoe WPC&quot;, &quot;Segoe UI&quot;, &quot;Ubuntu&quot;, &quot;Droid Sans&quot;, sans-serif, &quot;PingFang SC&quot;; font-size: 10px;" class="edge-label" id="edge-label-edge-yolo_cxcywh" transform="translate(43.53700256347656,327.5000009536743)"><tspan xml:space="preserve" dy="1em" x="1">8400×4</tspan></text><text style="opacity: 1; font-family: -apple-system, BlinkMacSystemFont, &quot;Segoe WPC&quot;, &quot;Segoe UI&quot;, &quot;Ubuntu&quot;, &quot;Droid Sans&quot;, sans-serif, &quot;PingFang SC&quot;; font-size: 10px;" class="edge-label" id="edge-label-edge-/Gather_output_0" transform="translate(138.32275485992432,327.5000009536743)"><tspan xml:space="preserve" dy="1em" x="1">8400</tspan></text><text style="opacity: 1; font-family: -apple-system, BlinkMacSystemFont, &quot;Segoe WPC&quot;, &quot;Segoe UI&quot;, &quot;Ubuntu&quot;, &quot;Droid Sans&quot;, sans-serif, &quot;PingFang SC&quot;; font-size: 10px;" class="edge-label" id="edge-label-edge-/Gather_output_0" transform="translate(194.35725688934326,358.7500009536743)"><tspan xml:space="preserve" dy="1em" x="1">8400</tspan></text><text style="opacity: 1; font-family: -apple-system, BlinkMacSystemFont, &quot;Segoe WPC&quot;, &quot;Segoe UI&quot;, &quot;Ubuntu&quot;, &quot;Droid Sans&quot;, sans-serif, &quot;PingFang SC&quot;; font-size: 10px;" class="edge-label" id="edge-label-edge-yolo_conf" transform="translate(166.3400058746338,430.3750009536743)"><tspan xml:space="preserve" dy="1em" x="1">8400</tspan></text></g><g id="nodes" class="nodes"><g id="input-name-yolo_raw_out_in" class="node graph-input" style="" transform="translate(65.63400459289551,0)"><g class="node-item graph-item-input" transform="translate(0,0)"><path d="M5,0h86.41200256347656a5,5 0 0 1 5,5v10.375a5,5 0 0 1 -5,5h-86.41200256347656a5,5 0 0 1 -5,-5v-10.375a5,5 0 0 1 5,-5z" style="stroke: rgb(0, 0, 0); fill: rgb(238, 238, 238); stroke-width: 0px;"/><text x="6" y="14.28499984741211" style="font-family: -apple-system, BlinkMacSystemFont, &quot;Segoe WPC&quot;, &quot;Segoe UI&quot;, &quot;Ubuntu&quot;, &quot;Droid Sans&quot;, sans-serif, &quot;PingFang SC&quot;; font-size: 11px; text-rendering: geometricprecision; user-select: none;">yolo_raw_out_in</text><title>float32[1,84,8400]</title></g><path class="node node-border" d="M5,0h86.41200256347656a5,5 0 0 1 5,5v10.375a5,5 0 0 1 -5,5h-86.41200256347656a5,5 0 0 1 -5,-5v-10.375a5,5 0 0 1 5,-5z" style="stroke: rgb(51, 51, 51); fill: none; stroke-width: 1px;"/></g><g id="node-name-/Transpose" class="node graph-node" style="" transform="translate(81.33650588989258,81.625)"><g class="node-item node-item-type node-item-type-transform" transform="translate(0,0)"><path d="M5,0h55.00699996948242a5,5 0 0 1 5,5v10.375a5,5 0 0 1 -5,5h-55.00699996948242a5,5 0 0 1 -5,-5v-10.375a5,5 0 0 1 5,-5z" style="stroke: rgb(0, 0, 0); fill: rgb(51, 85, 68); stroke-width: 0px;"/><text x="6" y="14.28499984741211" style="font-family: -apple-system, BlinkMacSystemFont, &quot;Segoe WPC&quot;, &quot;Segoe UI&quot;, &quot;Ubuntu&quot;, &quot;Droid Sans&quot;, sans-serif, &quot;PingFang SC&quot;; font-size: 11px; text-rendering: geometricprecision; user-select: none; fill: rgb(255, 255, 255);">Transpose</text><title>/Transpose</title></g><path class="node node-border" d="M5,0h55.00699996948242a5,5 0 0 1 5,5v10.375a5,5 0 0 1 -5,5h-55.00699996948242a5,5 0 0 1 -5,-5v-10.375a5,5 0 0 1 5,-5z" style="stroke: rgb(51, 51, 51); fill: none; stroke-width: 1px;"/></g><g id="node-name-/Squeeze" class="node graph-node" style="" transform="translate(76.34000587463379,143.25)"><g class="node-item node-item-type node-item-type-transform" transform="translate(0,0)"><path d="M5,0h65a5,5 0 0 1 5,5v15.375a0,0 0 0 1 0,0h-75a0,0 0 0 1 0,0v-15.375a5,5 0 0 1 5,-5z" style="stroke: rgb(0, 0, 0); fill: rgb(51, 85, 68); stroke-width: 0px;"/><text x="6" y="14.28499984741211" style="font-family: -apple-system, BlinkMacSystemFont, &quot;Segoe WPC&quot;, &quot;Segoe UI&quot;, &quot;Ubuntu&quot;, &quot;Droid Sans&quot;, sans-serif, &quot;PingFang SC&quot;; font-size: 11px; text-rendering: geometricprecision; user-select: none; fill: rgb(255, 255, 255);">Squeeze</text><title>/Squeeze</title></g><g class="node-argument-list" transform="translate(0,20.375)"><path d="M0,0h75a0,0 0 0 1 0,0v16.050000190734863a5,5 0 0 1 -5,5h-65a5,5 0 0 1 -5,-5v-16.050000190734863a0,0 0 0 1 0,0z" style="stroke: rgb(0, 0, 0); fill: rgb(255, 255, 255); stroke-width: 0px;"/><g class="node-argument"><rect rx="3" ry="3" x="3" y="3" width="69" height="15.050000190734863" style="fill: transparent;"/><text xml:space="preserve" x="6" y="14.440000534057617" style="font-family: -apple-system, BlinkMacSystemFont, &quot;Segoe WPC&quot;, &quot;Segoe UI&quot;, &quot;Ubuntu&quot;, &quot;Droid Sans&quot;, sans-serif, &quot;PingFang SC&quot;; font-size: 9px; font-weight: normal; text-rendering: geometricprecision; user-select: none;"><title>int64[1]</title><tspan style="font-weight: bold;">axes</tspan><tspan>〈1〉</tspan></text></g><line class="node" x1="0" x2="75" y1="0" y2="0" style="stroke: rgb(51, 51, 51); fill: none; stroke-width: 1px;"/></g><path class="node node-border" d="M5,0h65a5,5 0 0 1 5,5v31.425000190734863a5,5 0 0 1 -5,5h-65a5,5 0 0 1 -5,-5v-31.425000190734863a5,5 0 0 1 5,-5z" style="stroke: rgb(51, 51, 51); fill: none; stroke-width: 1px;"/></g><g id="node-name-/Slice" class="node graph-node" style="" transform="translate(1.0370025634765625,225.92500019073486)"><g class="node-item node-item-type node-item-type-tensor" transform="translate(0,0)"><path d="M5,0h65a5,5 0 0 1 5,5v15.375a0,0 0 0 1 0,0h-75a0,0 0 0 1 0,0v-15.375a5,5 0 0 1 5,-5z" style="stroke: rgb(0, 0, 0); fill: rgb(89, 66, 59); stroke-width: 0px;"/><text x="6" y="14.28499984741211" style="font-family: -apple-system, BlinkMacSystemFont, &quot;Segoe WPC&quot;, &quot;Segoe UI&quot;, &quot;Ubuntu&quot;, &quot;Droid Sans&quot;, sans-serif, &quot;PingFang SC&quot;; font-size: 11px; text-rendering: geometricprecision; user-select: none; fill: rgb(255, 255, 255);">Slice</text><title>/Slice</title></g><g class="node-argument-list" transform="translate(0,20.375)"><path d="M0,0h75a0,0 0 0 1 0,0v61.20000076293945a5,5 0 0 1 -5,5h-65a5,5 0 0 1 -5,-5v-61.20000076293945a0,0 0 0 1 0,0z" style="stroke: rgb(0, 0, 0); fill: rgb(255, 255, 255); stroke-width: 0px;"/><g class="node-argument"><rect rx="3" ry="3" x="3" y="3" width="69" height="15.050000190734863" style="fill: transparent;"/><text xml:space="preserve" x="6" y="14.440000534057617" style="font-family: -apple-system, BlinkMacSystemFont, &quot;Segoe WPC&quot;, &quot;Segoe UI&quot;, &quot;Ubuntu&quot;, &quot;Droid Sans&quot;, sans-serif, &quot;PingFang SC&quot;; font-size: 9px; font-weight: normal; text-rendering: geometricprecision; user-select: none;"><title>int64[1]</title><tspan style="font-weight: bold;">starts</tspan><tspan>〈1〉</tspan></text></g><g class="node-argument"><rect rx="3" ry="3" x="3" y="18.050000190734863" width="69" height="15.050000190734863" style="fill: transparent;"/><text xml:space="preserve" x="6" y="29.49000072479248" style="font-family: -apple-system, BlinkMacSystemFont, &quot;Segoe WPC&quot;, &quot;Segoe UI&quot;, &quot;Ubuntu&quot;, &quot;Droid Sans&quot;, sans-serif, &quot;PingFang SC&quot;; font-size: 9px; font-weight: normal; text-rendering: geometricprecision; user-select: none;"><title>int64[1]</title><tspan style="font-weight: bold;">ends</tspan><tspan>〈1〉</tspan></text></g><g class="node-argument"><rect rx="3" ry="3" x="3" y="33.10000038146973" width="69" height="15.050000190734863" style="fill: transparent;"/><text xml:space="preserve" x="6" y="44.540000915527344" style="font-family: -apple-system, BlinkMacSystemFont, &quot;Segoe WPC&quot;, &quot;Segoe UI&quot;, &quot;Ubuntu&quot;, &quot;Droid Sans&quot;, sans-serif, &quot;PingFang SC&quot;; font-size: 9px; font-weight: normal; text-rendering: geometricprecision; user-select: none;"><title>int64[1]</title><tspan style="font-weight: bold;">axes</tspan><tspan>〈1〉</tspan></text></g><g class="node-argument"><rect rx="3" ry="3" x="3" y="48.15000057220459" width="69" height="15.050000190734863" style="fill: transparent;"/><text xml:space="preserve" x="6" y="59.59000110626221" style="font-family: -apple-system, BlinkMacSystemFont, &quot;Segoe WPC&quot;, &quot;Segoe UI&quot;, &quot;Ubuntu&quot;, &quot;Droid Sans&quot;, sans-serif, &quot;PingFang SC&quot;; font-size: 9px; font-weight: normal; text-rendering: geometricprecision; user-select: none;"><title>int64[1]</title><tspan style="font-weight: bold;">steps</tspan><tspan>〈1〉</tspan></text></g><line class="node" x1="0" x2="75" y1="0" y2="0" style="stroke: rgb(51, 51, 51); fill: none; stroke-width: 1px;"/></g><path class="node node-border" d="M5,0h65a5,5 0 0 1 5,5v76.57500076293945a5,5 0 0 1 -5,5h-65a5,5 0 0 1 -5,-5v-76.57500076293945a5,5 0 0 1 5,-5z" style="stroke: rgb(51, 51, 51); fill: none; stroke-width: 1px;"/></g><g id="node-name-/Gather" class="node graph-node" style="" transform="translate(123.84000587463379,249.9625005722046)"><g class="node-item node-item-type node-item-type-transform" transform="translate(0,0)"><path d="M5,0h65a5,5 0 0 1 5,5v15.375a0,0 0 0 1 0,0h-75a0,0 0 0 1 0,0v-15.375a5,5 0 0 1 5,-5z" style="stroke: rgb(0, 0, 0); fill: rgb(51, 85, 68); stroke-width: 0px;"/><text x="6" y="14.28499984741211" style="font-family: -apple-system, BlinkMacSystemFont, &quot;Segoe WPC&quot;, &quot;Segoe UI&quot;, &quot;Ubuntu&quot;, &quot;Droid Sans&quot;, sans-serif, &quot;PingFang SC&quot;; font-size: 11px; text-rendering: geometricprecision; user-select: none; fill: rgb(255, 255, 255);">Gather</text><title>/Gather</title></g><g class="node-argument-list" transform="translate(0,20.375)"><path d="M0,0h75a0,0 0 0 1 0,0v13.125a5,5 0 0 1 -5,5h-65a5,5 0 0 1 -5,-5v-13.125a0,0 0 0 1 0,0z" style="stroke: rgb(0, 0, 0); fill: rgb(255, 255, 255); stroke-width: 0px;"/><g class="node-argument"><rect rx="3" ry="3" x="3" y="3" width="69" height="12.125" style="fill: transparent;"/><text xml:space="preserve" x="6" y="12.414999961853027" style="font-family: -apple-system, BlinkMacSystemFont, &quot;Segoe WPC&quot;, &quot;Segoe UI&quot;, &quot;Ubuntu&quot;, &quot;Droid Sans&quot;, sans-serif, &quot;PingFang SC&quot;; font-size: 9px; font-weight: normal; text-rendering: geometricprecision; user-select: none;"><title>int64</title><tspan>indices</tspan><tspan> = 4</tspan></text></g><line class="node" x1="0" x2="75" y1="0" y2="0" style="stroke: rgb(51, 51, 51); fill: none; stroke-width: 1px;"/></g><path class="node node-border" d="M5,0h65a5,5 0 0 1 5,5v28.5a5,5 0 0 1 -5,5h-65a5,5 0 0 1 -5,-5v-28.5a5,5 0 0 1 5,-5z" style="stroke: rgb(51, 51, 51); fill: none; stroke-width: 1px;"/></g><g id="node-name-/ReduceMax" class="node graph-node" style="" transform="translate(97.28825283050537,354.1875009536743)"><g class="node-item node-item-type" transform="translate(0,0)"><path d="M5,0h62.06900405883789a5,5 0 0 1 5,5v10.375a5,5 0 0 1 -5,5h-62.06900405883789a5,5 0 0 1 -5,-5v-10.375a5,5 0 0 1 5,-5z" style="stroke: rgb(0, 0, 0); fill: rgb(0, 0, 0); stroke-width: 0px;"/><text x="6" y="14.28499984741211" style="font-family: -apple-system, BlinkMacSystemFont, &quot;Segoe WPC&quot;, &quot;Segoe UI&quot;, &quot;Ubuntu&quot;, &quot;Droid Sans&quot;, sans-serif, &quot;PingFang SC&quot;; font-size: 11px; text-rendering: geometricprecision; user-select: none; fill: rgb(255, 255, 255);">ReduceMax</text><title>/ReduceMax</title></g><path class="node node-border" d="M5,0h62.06900405883789a5,5 0 0 1 5,5v10.375a5,5 0 0 1 -5,5h-62.06900405883789a5,5 0 0 1 -5,-5v-10.375a5,5 0 0 1 5,-5z" style="stroke: rgb(51, 51, 51); fill: none; stroke-width: 1px;"/></g><g id="node-name-/Div" class="node graph-node" style="" transform="translate(146.26600551605225,395.0000009536743)"><g class="node-item node-item-type" transform="translate(0,0)"><path d="M5,0h20.148000717163086a5,5 0 0 1 5,5v10.375a5,5 0 0 1 -5,5h-20.148000717163086a5,5 0 0 1 -5,-5v-10.375a5,5 0 0 1 5,-5z" style="stroke: rgb(0, 0, 0); fill: rgb(0, 0, 0); stroke-width: 0px;"/><text x="6" y="14.28499984741211" style="font-family: -apple-system, BlinkMacSystemFont, &quot;Segoe WPC&quot;, &quot;Segoe UI&quot;, &quot;Ubuntu&quot;, &quot;Droid Sans&quot;, sans-serif, &quot;PingFang SC&quot;; font-size: 11px; text-rendering: geometricprecision; user-select: none; fill: rgb(255, 255, 255);">Div</text><title>/Div</title></g><path class="node node-border" d="M5,0h20.148000717163086a5,5 0 0 1 5,5v10.375a5,5 0 0 1 -5,5h-20.148000717163086a5,5 0 0 1 -5,-5v-10.375a5,5 0 0 1 5,-5z" style="stroke: rgb(51, 51, 51); fill: none; stroke-width: 1px;"/></g><g class="node" style="" transform="translate(0,354.1875009536743)"><g class="node-item graph-item-output" transform="translate(0,0)"><path d="M5,0h67.07400512695312a5,5 0 0 1 5,5v10.375a5,5 0 0 1 -5,5h-67.07400512695312a5,5 0 0 1 -5,-5v-10.375a5,5 0 0 1 5,-5z" style="stroke: rgb(0, 0, 0); fill: rgb(238, 238, 238); stroke-width: 0px;"/><text x="6" y="14.28499984741211" style="font-family: -apple-system, BlinkMacSystemFont, &quot;Segoe WPC&quot;, &quot;Segoe UI&quot;, &quot;Ubuntu&quot;, &quot;Droid Sans&quot;, sans-serif, &quot;PingFang SC&quot;; font-size: 11px; text-rendering: geometricprecision; user-select: none;">yolo_cxcywh</text><title>float32[8400,4]</title></g><path class="node node-border" d="M5,0h67.07400512695312a5,5 0 0 1 5,5v10.375a5,5 0 0 1 -5,5h-67.07400512695312a5,5 0 0 1 -5,-5v-10.375a5,5 0 0 1 5,-5z" style="stroke: rgb(51, 51, 51); fill: none; stroke-width: 1px;"/></g><g class="node" style="" transform="translate(129.79900550842285,456.6250009536743)"><g class="node-item graph-item-output" transform="translate(0,0)"><path d="M5,0h53.082000732421875a5,5 0 0 1 5,5v10.375a5,5 0 0 1 -5,5h-53.082000732421875a5,5 0 0 1 -5,-5v-10.375a5,5 0 0 1 5,-5z" style="stroke: rgb(0, 0, 0); fill: rgb(238, 238, 238); stroke-width: 0px;"/><text x="6" y="14.28499984741211" style="font-family: -apple-system, BlinkMacSystemFont, &quot;Segoe WPC&quot;, &quot;Segoe UI&quot;, &quot;Ubuntu&quot;, &quot;Droid Sans&quot;, sans-serif, &quot;PingFang SC&quot;; font-size: 11px; text-rendering: geometricprecision; user-select: none;">yolo_conf</text><title>float32[8400]</title></g><path class="node node-border" d="M5,0h53.082000732421875a5,5 0 0 1 5,5v10.375a5,5 0 0 1 -5,5h-53.082000732421875a5,5 0 0 1 -5,-5v-10.375a5,5 0 0 1 5,-5z" style="stroke: rgb(51, 51, 51); fill: none; stroke-width: 1px;"/></g></g></g></svg>